<?xml version="1.0" standalone="no"?>
<!DOCTYPE svg PUBLIC "-//W3C//DTD SVG 1.1//EN" "http://www.w3.org/Graphics/SVG/1.1/DTD/svg11.dtd" >
<svg>
<metadata>
Created by FontForge 20090622 at Wed Mar  5 05:02:03 2014
 By ffonts
1.2, Copyright &#194;&#169; Castcraft Software, Inc. 1990-1993.
</metadata>
<defs>
<font id="CaslonGraphique-Opti" horiz-adv-x="691" >
  <font-face 
    font-family="CaslonGraphique"
    font-weight="500"
    font-stretch="normal"
    units-per-em="1000"
    panose-1="0 0 0 0 0 0 0 0 0 0"
    ascent="767"
    descent="-233"
    x-height="508"
    cap-height="682"
    bbox="-130 -333 1273 963.768"
    underline-thickness="54"
    underline-position="-45"
    stemh="13"
    stemv="182"
    unicode-range="U+0020-U+FB02"
  />
<missing-glyph horiz-adv-x="500" 
 />
    <glyph glyph-name=".notdef" horiz-adv-x="500" 
 />
    <glyph glyph-name="space" unicode=" " horiz-adv-x="325" 
 />
    <glyph glyph-name="exclam" unicode="!" horiz-adv-x="297" 
d="M267 522c0 -40 -16 -82 -41 -137l-45 -99c-12 -27 -20 -63 -20 -96h-15c0 33 -6 76 -29 126l-34 73c-22 47 -43 90 -43 132c0 59 43 105 118 162c80 -64 109 -110 109 -161zM256 59c0 -57 -47 -103 -104 -103s-105 46 -105 103s48 105 105 105s104 -48 104 -105z" />
    <glyph glyph-name="quotedbl" unicode="&#x22;" horiz-adv-x="272" 
d="M94 358h-21l-24 183c-4 29 -29 141 32 141c63 0 39 -107 35 -139zM212 358h-21l-23 183c-4 29 -30 141 31 141c63 0 40 -107 36 -139z" />
    <glyph glyph-name="numbersign" unicode="#" horiz-adv-x="805" 
d="M383 715h85l-81 -232h141l81 232h86l-82 -232h162l-24 -67h-161l-54 -147h162l-23 -67h-162l-84 -236h-86l84 236h-141l-84 -236h-86l84 236h-160l24 67h160l53 147h-161l24 67h161zM310 269h141l53 147h-141z" />
    <glyph glyph-name="dollar" unicode="$" horiz-adv-x="618" 
d="M589 226c0 -149 -148 -241 -268 -241v-137h-13v137c-135 0 -268 67 -268 159c0 50 41 80 77 80c72 0 92 -67 102 -142c5 -39 33 -71 89 -82v251c-171 54 -241 115 -241 219c0 126 123 223 244 223v78h12v-78c153 0 247 -70 247 -138c0 -41 -33 -71 -69 -71
c-61 0 -93 51 -108 123c-9 40 -26 62 -70 74v-231l41 -14c111 -38 225 -80 225 -210zM311 455v227c-58 0 -102 -40 -102 -113c0 -63 32 -86 102 -114zM321 246v-246c92 0 126 59 126 120c0 71 -51 99 -126 126z" />
    <glyph glyph-name="percent" unicode="%" horiz-adv-x="519" 
d="M218 578c0 69 -11 107 -38 107c-42 0 -53 -105 -53 -178c0 -74 12 -106 37 -106c49 0 54 116 54 177zM397 174c0 69 -10 107 -37 107c-42 0 -53 -105 -53 -178c0 -74 12 -106 36 -106c50 0 54 115 54 177zM348 -12c-68 0 -131 60 -131 159c0 75 74 143 146 143
c60 0 126 -71 126 -150c0 -82 -67 -152 -141 -152zM262 656c39 -15 77 -26 100 -26c43 0 94 26 110 51l38 57l11 -2l-489 -762l-9 2l425 668c-37 -23 -63 -31 -86 -31c-19 0 -46 7 -85 25c20 -26 33 -59 33 -94c0 -81 -67 -151 -141 -151c-68 0 -129 60 -129 158
c0 75 71 143 143 143c28 0 57 -15 79 -38z" />
    <glyph glyph-name="ampersand" unicode="&#x26;" horiz-adv-x="824" 
d="M612 334c44 -37 58 -84 58 -125c0 -121 -100 -221 -290 -221c-216 0 -340 100 -340 217c0 103 87 176 234 205c-73 16 -153 41 -153 123s96 161 244 161c76 0 146 -49 146 -115c0 -60 -43 -96 -109 -96c-46 0 -88 32 -88 76c0 38 27 61 57 61c7 1 39 -4 49 -25
c-17 -6 -35 -14 -35 -36c0 -23 16 -41 45 -41c34 0 60 25 60 61c0 58 -43 96 -125 96c-59 0 -106 -44 -106 -131c0 -66 19 -109 84 -132v-7c-66 0 -119 -54 -119 -154c0 -148 93 -234 217 -234c130 0 205 88 205 181c0 84 -68 141 -152 141c-67 0 -132 -46 -132 -118
c0 -44 31 -77 58 -77c18 0 29 7 29 23c0 23 -12 30 -12 60s26 60 67 60c42 0 76 -33 76 -82c0 -58 -42 -98 -111 -98c-68 0 -135 52 -135 148c0 119 88 201 229 201h59c69 0 152 29 152 98c0 31 -25 59 -48 59c-22 0 -31 -8 -33 -49c-2 -46 -30 -71 -66 -71
c-43 0 -77 29 -77 76c0 53 43 93 104 93c75 0 141 -55 141 -147c0 -100 -80 -181 -183 -181z" />
    <glyph glyph-name="quoteright" unicode="&#x2019;" horiz-adv-x="252" 
d="M223 584c0 -76 -60 -159 -154 -217l-4 12c41 28 58 56 58 90c0 57 -83 54 -83 138c0 53 38 87 83 87c55 0 100 -34 100 -110z" />
    <glyph glyph-name="parenleft" unicode="(" horiz-adv-x="320" 
d="M290 -152l-6 -7c-124 69 -244 238 -244 420s120 353 244 422l6 -6c-97 -70 -145 -246 -145 -416c0 -154 48 -344 145 -413z" />
    <glyph glyph-name="parenright" unicode=")" horiz-adv-x="320" 
d="M40 676l6 6c125 -69 244 -240 244 -422s-119 -351 -244 -420l-6 7c97 69 145 260 145 413c0 170 -48 347 -145 416z" />
    <glyph glyph-name="asterisk" unicode="*" horiz-adv-x="394" 
d="M239 670c19 -35 -9 -68 -29 -115l-7 -13c-17 32 -65 96 -46 129c7 12 22 22 40 23c14 0 32 -6 42 -24zM179 495c-21 -34 -51 -101 -95 -98c-16 1 -31 10 -40 28c-5 13 -6 29 6 45c27 34 84 25 114 25h15zM361 459c7 -14 5 -33 -6 -49c-10 -14 -25 -21 -43 -19
c-38 5 -65 75 -81 104h13c23 0 98 3 117 -36zM361 563c-19 -39 -94 -36 -117 -36h-14c16 28 44 99 82 104c18 3 33 -6 43 -20c11 -15 13 -34 6 -48zM179 528h-15c-30 0 -88 -10 -114 24c-13 16 -11 33 -6 46c9 17 24 26 40 27c44 3 75 -63 95 -97zM239 354
c-10 -19 -28 -25 -42 -25c-18 1 -33 11 -40 24c-19 33 29 97 46 128l7 -13c24 -44 48 -79 29 -114z" />
    <glyph glyph-name="plus" unicode="+" horiz-adv-x="740" 
d="M439 271v-271h-126v271h-273v126h273v273h126v-273h271v-126h-271z" />
    <glyph glyph-name="comma" unicode="," horiz-adv-x="266" 
d="M237 59c0 -76 -74 -159 -168 -217l-4 12c41 29 58 56 58 91c0 56 -83 53 -83 137c0 52 44 88 93 88c54 0 104 -35 104 -111z" />
    <glyph glyph-name="hyphen" unicode="-" horiz-adv-x="228" 
d="M198 215h-158v83h158v-83z" />
    <glyph glyph-name="period" unicode="." horiz-adv-x="267" 
d="M139 184c54 0 99 -44 99 -98s-45 -98 -99 -98s-99 44 -99 98s45 98 99 98z" />
    <glyph glyph-name="slash" unicode="/" horiz-adv-x="592" 
d="M562 682l-512 -685l-9 3l512 685z" />
    <glyph glyph-name="zero" unicode="0" 
d="M662 341c0 -208 -150 -353 -311 -353s-311 145 -311 353s150 353 311 353s311 -145 311 -353zM452 341c0 224 -20 341 -101 341c-80 0 -101 -117 -101 -341s21 -341 101 -341c81 0 101 117 101 341z" />
    <glyph glyph-name="one" unicode="1" 
d="M541 0h-388v13c70 0 96 23 96 94v332c0 69 -17 85 -73 85h-31v12c4 0 76 30 155 71c85 45 146 87 146 87v-587c0 -71 25 -94 95 -94v-13z" />
    <glyph glyph-name="two" unicode="2" 
d="M584 207c0 0 -23 -60 -40 -116c-18 -59 -32 -120 -32 -120h-14c7 21 -1 29 -27 29h-396c0 93 36 142 94 193l45 40c110 97 143 151 143 218c0 71 -48 121 -122 121c-53 0 -91 -21 -118 -78h-15c50 157 139 200 241 200c128 0 219 -91 219 -197
c0 -138 -121 -196 -232 -237l-63 -23c-42 -15 -85 -45 -133 -97h284c85 0 120 16 152 69z" />
    <glyph glyph-name="three" unicode="3" 
d="M561 255c0 -143 -137 -267 -277 -267c-152 0 -226 63 -226 143c0 68 41 102 87 102c48 0 84 -39 84 -88c0 -31 -12 -65 -12 -89c0 -28 29 -55 67 -55c56 0 106 46 106 153c0 111 -49 211 -151 232v12c73 13 113 52 113 123c0 51 -39 92 -92 92c-41 0 -70 -11 -101 -62
h-14c34 93 92 143 185 143c118 0 181 -65 181 -145c0 -40 -14 -78 -54 -105c78 -51 104 -110 104 -189z" />
    <glyph glyph-name="four" unicode="4" 
d="M647 299c-17 -24 -42 -68 -56 -104h-85v-72c0 -83 30 -110 108 -110v-13h-417v13c90 0 124 30 124 110v71h-284c-11 32 -18 46 -34 70l377 418h126v-410c82 0 96 4 126 35zM321 268v274l-246 -274h246z" />
    <glyph glyph-name="five" unicode="5" 
d="M561 712c-26 -52 -45 -103 -57 -161h-338l-15 -81c24 4 57 10 96 10c207 0 325 -104 325 -241c0 -142 -118 -251 -274 -251c-162 0 -242 62 -242 148c0 55 43 86 87 86s82 -36 82 -92c0 -25 -5 -45 -5 -72c0 -31 26 -58 78 -58c67 0 125 55 125 162
c0 101 -70 162 -220 162c-40 0 -80 -4 -110 -13c6 13 9 22 12 44l47 295c2 13 2 32 2 32h288c62 0 77 2 109 34z" />
    <glyph glyph-name="six" unicode="6" 
d="M619 223c0 -132 -118 -235 -261 -235c-156 0 -279 117 -279 299c0 181 147 346 409 433l6 -13c-109 -65 -172 -171 -200 -273c22 7 38 13 64 13c147 0 261 -94 261 -224zM451 218c0 121 -17 217 -93 217s-97 -97 -97 -217s15 -218 97 -218c76 0 93 98 93 218z" />
    <glyph glyph-name="seven" unicode="7" 
d="M619 682c0 -35 -11 -78 -52 -156l-116 -220c-49 -92 -70 -182 -70 -306h-222c0 142 60 240 218 369l116 95c21 17 37 34 68 77h-253c-64 0 -140 -2 -179 -68h-14c4 9 5 12 8 23c0 0 22 66 34 111c12 44 24 89 24 113h13c-5 -16 18 -38 75 -38h350z" />
    <glyph glyph-name="eight" unicode="8" 
d="M607 214c0 -123 -111 -226 -267 -226c-158 0 -252 77 -252 193c0 69 34 109 114 163c-66 52 -86 97 -86 146c0 122 99 204 251 204c120 0 195 -79 195 -149c0 -58 -24 -92 -95 -144c90 -53 140 -101 140 -187zM493 527c0 106 -54 155 -125 155c-55 0 -99 -35 -99 -111
c0 -74 65 -102 166 -155l19 -10c29 53 39 75 39 121zM289 298l-49 23c-11 5 -9 5 -24 14c-26 -50 -32 -95 -32 -134c0 -97 57 -202 156 -202c76 0 122 51 122 122c0 96 -82 134 -173 177z" />
    <glyph glyph-name="nine" unicode="9" 
d="M603 395c0 -181 -147 -346 -410 -432l-6 12c110 65 172 172 201 274c-22 -7 -39 -13 -65 -13c-146 0 -261 93 -261 224c0 132 118 234 261 234c156 0 280 -116 280 -299zM420 464c0 121 -15 218 -97 218c-75 0 -92 -97 -92 -218s17 -216 92 -216c76 0 97 96 97 216z" />
    <glyph glyph-name="colon" unicode=":" horiz-adv-x="267" 
d="M139 184c54 0 99 -44 99 -98s-45 -98 -99 -98s-99 44 -99 98s45 98 99 98zM139 493c54 0 99 -44 99 -99c0 -54 -45 -97 -99 -97s-99 43 -99 97c0 55 45 99 99 99z" />
    <glyph glyph-name="semicolon" unicode=";" horiz-adv-x="267" 
d="M139 493c54 0 99 -44 99 -99c0 -54 -45 -97 -99 -97s-99 43 -99 97c0 55 45 99 99 99zM237 59c0 -76 -74 -159 -168 -217l-4 12c41 29 58 56 58 91c0 56 -83 53 -83 137c0 52 44 88 93 88c54 0 104 -35 104 -111z" />
    <glyph glyph-name="less" unicode="&#x3c;" horiz-adv-x="552" 
d="M40 396l483 180v-109l-369 -130l369 -130v-108l-483 179v118z" />
    <glyph glyph-name="equal" unicode="=" horiz-adv-x="872" 
d="M842 545v-127h-802v127h802zM842 250v-128h-802v128h802z" />
    <glyph glyph-name="greater" unicode="&#x3e;" horiz-adv-x="552" 
d="M523 278l-483 -179v108l369 130l-369 130v109l483 -180v-118z" />
    <glyph glyph-name="question" unicode="?" horiz-adv-x="583" 
d="M553 528c0 -94 -83 -130 -166 -169l-38 -18c-58 -27 -80 -52 -80 -81c0 -10 7 -19 25 -24l-12 -12c-9 0 -25 13 -25 36c0 11 5 24 15 41l8 14c43 76 73 156 73 226c0 100 -50 141 -105 141c-47 0 -67 -16 -67 -51c0 -42 39 -93 39 -125c0 -51 -48 -90 -95 -90
c-42 0 -85 34 -85 94c0 96 91 184 208 184c208 0 305 -76 305 -166zM378 92c0 -57 -48 -104 -105 -104s-104 47 -104 104s47 104 104 104s105 -47 105 -104z" />
    <glyph glyph-name="at" unicode="@" horiz-adv-x="973" 
d="M580 167c-46 -74 -99 -98 -161 -98c-93 0 -160 72 -159 176c2 143 116 287 234 287c52 0 107 -8 137 -80l19 62h124l-65 -230c-9 -33 -51 -147 18 -147c63 0 162 88 162 254c0 213 -166 289 -337 289c-201 0 -415 -140 -415 -416c0 -230 169 -368 353 -368
c116 0 232 27 346 98l26 -42c-119 -76 -258 -113 -385 -113c-297 0 -437 228 -437 437c0 258 216 458 512 458c196 0 392 -95 392 -342c0 -176 -103 -322 -248 -322c-69 0 -107 35 -116 97zM393 203c0 -34 16 -70 59 -70c102 0 142 200 147 247c5 40 -10 85 -63 85
c-101 0 -143 -221 -143 -262z" />
    <glyph glyph-name="A" unicode="A" horiz-adv-x="850" 
d="M860 0h-420v13c66 0 96 36 67 111l-54 138h-206c-2 -5 -5 -16 -5 -16c-53 -170 7 -233 84 -233v-13h-324v13c120 19 188 141 225 239l112 293c-11 23 -20 36 -40 55c56 30 134 97 176 148l240 -600c42 -105 84 -135 145 -135v-13zM448 275l-102 251l-96 -251h198z" />
    <glyph glyph-name="B" unicode="B" horiz-adv-x="757" 
d="M728 192c0 -140 -169 -192 -284 -192h-404v13c66 0 95 29 95 86v483c0 57 -29 88 -95 88v12h364c191 0 279 -74 279 -160c0 -95 -85 -138 -214 -148c142 -18 259 -72 259 -182zM487 527c0 100 -32 143 -115 143h-38v-291h33c82 0 120 29 120 148zM516 192
c0 131 -41 174 -142 174h-40v-276c0 -60 21 -78 59 -78c78 0 123 46 123 180z" />
    <glyph glyph-name="C" unicode="C" horiz-adv-x="679" 
d="M40 341c0 195 170 353 364 353c101 0 164 -22 200 -22c11 0 19 7 19 24h9l11 -290h-9c-20 78 -104 277 -230 277c-75 0 -147 -77 -147 -342c0 -264 72 -342 147 -342c121 0 219 169 237 281h11l-17 -297h-9c0 14 -7 23 -19 23c-26 0 -64 -18 -203 -18
c-195 0 -364 158 -364 353z" />
    <glyph glyph-name="D" unicode="D" horiz-adv-x="814" 
d="M335 670v-576c0 -60 27 -81 83 -81c83 0 149 64 149 328c0 265 -60 329 -187 329h-45zM40 0v13c66 0 96 29 96 87v483c0 57 -30 87 -96 87v12h378c210 0 366 -146 366 -341c0 -197 -160 -341 -366 -341h-378z" />
    <glyph glyph-name="E" unicode="E" horiz-adv-x="756" 
d="M40 0v13c66 0 95 29 95 86v483c0 57 -29 88 -95 88v12h603l39 -238h-10c-64 159 -149 226 -309 226h-29v-312c114 0 185 79 185 152h11v-319h-11c0 73 -71 152 -185 152v-263c0 -51 20 -67 58 -67c161 0 286 160 324 284h11l-51 -297h-636z" />
    <glyph glyph-name="F" unicode="F" horiz-adv-x="642" 
d="M452 0h-412v13c66 0 96 29 96 87v483c0 57 -30 87 -96 87v12h575l41 -237h-11c-60 150 -166 225 -310 225v-327c113 0 175 79 175 152h12v-319h-12c0 73 -62 151 -175 151v-227c0 -58 38 -87 117 -87v-13z" />
    <glyph glyph-name="G" unicode="G" horiz-adv-x="809" 
d="M684 227v-229h-11c0 23 -17 36 -33 36c-23 0 -127 -46 -240 -46c-204 0 -360 149 -360 342c0 213 167 364 380 364c101 0 150 -22 186 -22c11 0 19 7 19 24h9l11 -275h-9c-20 78 -91 262 -216 262c-84 0 -169 -105 -169 -353c0 -240 47 -331 149 -331c59 0 93 31 93 141
v87c0 57 -25 87 -86 87v12h372v-12c-65 0 -95 -30 -95 -87z" />
    <glyph glyph-name="H" unicode="H" horiz-adv-x="889" 
d="M554 364h10v218c0 57 -25 88 -86 88v12h381v-12c-65 0 -96 -31 -96 -88v-483c0 -57 31 -86 96 -86v-13h-381v13c58 0 86 29 86 86v253h-230v-253c0 -57 26 -86 86 -86v-13h-380v13c66 0 95 29 95 86v483c0 57 -29 88 -95 88v12h380v-12c-60 0 -86 -31 -86 -88v-218h220z
" />
    <glyph glyph-name="I" unicode="I" horiz-adv-x="461" 
d="M431 682v-12c-65 0 -96 -30 -96 -87v-483c0 -58 31 -87 96 -87v-13h-391v13c66 0 96 29 96 87v483c0 57 -30 87 -96 87v12h391z" />
    <glyph glyph-name="J" unicode="J" horiz-adv-x="659" 
d="M334 582c0 57 -29 88 -94 88v12h389v-12c-65 0 -95 -31 -95 -88v-392c0 -60 -22 -108 -85 -150c-42 -28 -107 -52 -183 -52c-132 0 -223 75 -223 163c0 73 42 106 95 106c50 0 84 -39 84 -89c0 -52 -16 -94 -16 -116c0 -19 26 -52 60 -52c42 0 68 27 68 134v448z" />
    <glyph glyph-name="K" unicode="K" horiz-adv-x="867" 
d="M334 352l73 79c101 110 118 183 118 201c0 28 -11 38 -21 38v12h286v-12c-59 0 -169 -52 -325 -194l217 -328c77 -116 119 -135 184 -135v-13h-327l-205 336v-237c0 -57 32 -86 97 -86v-13h-391v13c66 0 95 29 95 86v483c0 57 -29 88 -95 88v12h391v-12
c-65 0 -97 -31 -97 -88v-230z" />
    <glyph glyph-name="L" unicode="L" horiz-adv-x="693" 
d="M40 0v13c66 0 96 29 96 87v483c0 57 -30 87 -96 87v12h391v-12c-65 0 -96 -30 -96 -87v-471c0 -87 17 -99 78 -99c134 0 246 144 292 291l10 -1l-61 -303h-614z" />
    <glyph glyph-name="M" unicode="M" horiz-adv-x="1068" 
d="M1038 682v-12c-65 0 -95 -30 -95 -87v-483c0 -58 30 -87 95 -87v-13h-390v13c65 0 96 29 96 87v539l-266 -666l-260 656v-386c0 -162 68 -230 148 -230v-13h-326v13c79 0 163 69 163 230v318c0 72 -40 109 -132 109v12h339l165 -427l171 427h292z" />
    <glyph glyph-name="N" unicode="N" horiz-adv-x="937" 
d="M739 439c0 162 -84 231 -162 231v12h330v-12c-73 0 -154 -69 -154 -231v-488l-534 620v-329c0 -160 84 -229 163 -229v-13h-341v13c79 0 162 69 162 229v304c0 66 -47 124 -153 124v12h336l353 -418v175z" />
    <glyph glyph-name="O" unicode="O" horiz-adv-x="798" 
d="M768 341c0 -195 -168 -353 -364 -353c-195 0 -364 158 -364 353s169 353 364 353c196 0 364 -158 364 -353zM551 341c0 265 -72 342 -147 342s-147 -77 -147 -342c0 -264 72 -342 147 -342s147 78 147 342z" />
    <glyph glyph-name="P" unicode="P" horiz-adv-x="741" 
d="M711 488c0 -143 -143 -195 -334 -195h-42v-193c0 -58 31 -87 96 -87v-13h-391v13c66 0 96 29 96 87v483c0 57 -30 87 -96 87v12h337c232 0 334 -85 334 -194zM496 488c0 144 -41 182 -133 182h-28v-364h27c94 0 134 43 134 182z" />
    <glyph glyph-name="Q" unicode="Q" horiz-adv-x="798" 
d="M551 341c0 265 -72 342 -147 342s-147 -77 -147 -342c0 -264 72 -342 147 -342s147 78 147 342zM298 4c-146 44 -258 178 -258 337c0 195 169 353 364 353c196 0 364 -158 364 -353s-168 -353 -364 -353c-12 0 -25 1 -38 2c9 -3 19 -8 31 -12l91 -33
c53 -19 103 -43 161 -43s82 18 105 76l8 -2c-14 -110 -66 -214 -194 -215c-74 0 -142 46 -212 131l-18 22c-28 35 -60 80 -90 80c-14 0 -32 -16 -31 -33c4 -64 -13 -83 -48 -83c-28 0 -47 21 -47 43c0 39 60 84 126 84c20 0 37 0 50 -1z" />
    <glyph glyph-name="R" unicode="R" horiz-adv-x="868" 
d="M382 670h-48v-318h26c94 0 141 32 141 159c0 114 -42 159 -119 159zM392 682c213 0 320 -85 320 -178c0 -83 -68 -127 -164 -148c82 -19 103 -62 142 -141l35 -71c53 -107 78 -131 153 -131v-13h-306l-82 196c-44 106 -70 144 -156 144v-241c0 -57 32 -86 97 -86v-13
h-391v13c66 0 95 29 95 86v483c0 57 -29 88 -95 88v12h352z" />
    <glyph glyph-name="S" unicode="S" horiz-adv-x="636" 
d="M607 215c0 -130 -104 -227 -266 -227c-101 0 -216 38 -257 38c-8 0 -20 -10 -25 -31h-9l-11 322h8c27 -91 145 -318 294 -318c76 0 124 45 124 108c0 74 -66 104 -147 137l-96 39c-95 39 -182 87 -182 185c0 133 115 226 252 226c101 0 179 -31 211 -31c11 0 15 6 21 26
h9l15 -261h-8c-36 105 -118 255 -248 255c-52 0 -106 -31 -106 -101c0 -75 68 -104 144 -133l98 -37c107 -40 179 -77 179 -197z" />
    <glyph glyph-name="T" unicode="T" horiz-adv-x="670" 
d="M241 670c-109 -27 -203 -120 -231 -210h-9l28 249c35 -24 49 -27 82 -27h459c35 0 47 3 82 27l28 -249h-7c-30 90 -124 183 -233 210v-571c0 -57 31 -86 96 -86v-13h-390v13c65 0 95 29 95 86v571z" />
    <glyph glyph-name="U" unicode="U" horiz-adv-x="851" 
d="M135 582c0 57 -29 88 -95 88v12h391v-12c-65 0 -97 -31 -97 -88v-355c0 -75 -1 -140 67 -180c25 -15 55 -22 101 -22c40 0 71 6 100 23c82 48 77 148 77 206v82c0 181 -35 326 -116 334v12h258v-12c-96 -22 -128 -196 -128 -334v-91c0 -79 0 -169 -105 -227
c-32 -17 -86 -30 -148 -30c-79 0 -163 18 -214 49c-71 44 -91 97 -91 194v351z" />
    <glyph glyph-name="V" unicode="V" horiz-adv-x="838" 
d="M848 669c-64 -14 -163 -137 -200 -214l-239 -490l-265 566c-40 86 -76 131 -143 139v12h392v-12c-65 -12 -81 -59 -46 -132l161 -339l57 120c34 72 63 151 63 222c0 84 -26 123 -73 129v12h293v-13z" />
    <glyph glyph-name="W" unicode="W" horiz-adv-x="1263" 
d="M1273 670c-71 -21 -128 -109 -156 -165l-270 -545l-211 445l-219 -438l-280 578c-30 62 -63 111 -135 125v12h383v-12c-57 -10 -65 -48 -25 -132l159 -335l109 219l-61 130c-27 57 -39 103 -109 118v12h373v-12c-62 -14 -77 -51 -29 -156l145 -317l36 72
c35 71 69 175 69 268c0 79 -25 119 -72 133v12h293v-12z" />
    <glyph glyph-name="X" unicode="X" horiz-adv-x="825" 
d="M835 0h-401l1 13c23 4 39 8 46 32c9 34 -24 77 -66 137l-74 106c-65 -88 -90 -147 -68 -215c11 -35 34 -51 66 -60v-13h-323v13c96 23 256 198 306 273l10 15l-177 251c-43 61 -81 106 -154 118l1 12h421v-11c-26 -4 -46 -10 -56 -33c-15 -36 44 -115 69 -150l39 -54
c59 83 85 145 62 202c-8 19 -18 29 -36 34v12h275v-12c-107 -22 -214 -134 -293 -247l207 -298c52 -74 76 -100 145 -113v-12z" />
    <glyph glyph-name="Y" unicode="Y" horiz-adv-x="803" 
d="M501 99c0 -57 32 -86 96 -86v-13h-390v13c65 0 95 29 95 86v176l-162 277c-42 71 -71 109 -139 118v12h398v-12c-34 0 -57 -16 -57 -50c0 -37 26 -78 51 -120l101 -169l29 49c47 79 76 135 76 195c0 64 -26 92 -51 95v12h265v-12c-86 -26 -159 -116 -208 -191l-104 -159
v-221z" />
    <glyph glyph-name="Z" unicode="Z" horiz-adv-x="677" 
d="M650 682l-409 -669c137 0 306 107 386 297h13l-61 -310h-576l409 670c-132 0 -262 -82 -364 -267h-10l66 279h546z" />
    <glyph glyph-name="bracketleft" unicode="[" horiz-adv-x="309" 
d="M150 653v-855h129v-34h-239v918h239v-29h-129z" />
    <glyph glyph-name="backslash" unicode="\" horiz-adv-x="584" 
d="M553 5l-9 -3l-505 680l9 2z" />
    <glyph glyph-name="bracketright" unicode="]" horiz-adv-x="309" 
d="M170 653h-130v29h239v-918h-239v34h130v855z" />
    <glyph glyph-name="asciicircum" unicode="^" horiz-adv-x="400" 
d="M370 567h-14l-151 76l-151 -76h-14l165 177z" />
    <glyph glyph-name="underscore" unicode="_" horiz-adv-x="450" 
d="M519 -151h-479v40h479v-40z" />
    <glyph glyph-name="quoteleft" unicode="&#x2018;" horiz-adv-x="252" 
d="M140 367c-54 0 -100 34 -100 110s61 159 154 217l4 -12c-40 -28 -58 -56 -58 -90c0 -56 83 -54 83 -137c0 -54 -38 -88 -83 -88z" />
    <glyph glyph-name="a" unicode="a" horiz-adv-x="666" 
d="M641 69c-58 -47 -117 -81 -168 -81c-57 0 -93 28 -104 92c-51 -71 -116 -92 -180 -92c-88 0 -144 47 -144 111c0 76 90 121 208 162l116 40v94c0 74 -30 98 -62 98c-50 0 -80 -45 -85 -120c-4 -71 -50 -113 -107 -113c-37 0 -69 26 -69 72c0 51 43 93 122 130
c53 24 153 58 245 58c95 0 138 -38 138 -170v-239c0 -33 17 -48 39 -48c12 0 26 4 46 15zM369 134v154s-17 -5 -33 -11c-58 -23 -87 -66 -87 -126c0 -75 30 -95 58 -95c34 0 62 29 62 78z" />
    <glyph glyph-name="b" unicode="b" horiz-adv-x="663" 
d="M353 467c-19 0 -36 -8 -61 -28v-340c0 -62 20 -100 60 -100c68 0 92 108 92 251c0 174 -43 217 -91 217zM109 592c0 56 -21 78 -78 78v12s56 10 132 34c77 24 129 46 129 46v-306c52 44 98 64 144 64c108 0 197 -87 197 -241c0 -181 -126 -291 -281 -291
c-77 0 -163 40 -185 40c-17 0 -38 -10 -47 -52h-11v616z" />
    <glyph glyph-name="c" unicode="c" horiz-adv-x="577" 
d="M542 192c-48 -135 -126 -204 -251 -204c-138 0 -251 101 -251 256s122 276 276 276c129 0 207 -87 207 -165c0 -50 -32 -90 -83 -90c-40 0 -82 34 -82 90c0 24 16 51 16 90c0 34 -28 64 -58 64c-50 0 -107 -47 -107 -184c0 -146 75 -206 168 -206c54 0 114 22 158 76z
" />
    <glyph glyph-name="d" unicode="d" horiz-adv-x="666" 
d="M636 62c0 0 -64 -14 -129 -34c-74 -22 -131 -43 -131 -43v80c-54 -53 -103 -77 -152 -77c-98 0 -184 80 -184 225c0 180 126 307 281 307c24 0 40 -4 55 -10v82c0 56 -22 78 -79 78v12s56 10 132 34c77 24 129 46 129 46v-609c0 -58 30 -82 78 -82v-9zM376 85v379
c0 26 -21 44 -47 44c-67 0 -102 -107 -102 -266c0 -163 44 -193 87 -193c19 0 38 11 62 36z" />
    <glyph glyph-name="e" unicode="e" horiz-adv-x="596" 
d="M567 204c-49 -140 -130 -216 -267 -216s-260 107 -260 260c0 149 120 272 273 272c136 0 242 -101 242 -219h-326c0 -136 69 -188 164 -188c65 0 121 27 161 95zM382 346c0 128 -33 163 -69 163c-53 0 -85 -82 -85 -197h154v34z" />
    <glyph glyph-name="f" unicode="f" horiz-adv-x="426" 
d="M486 552c-45 0 -83 26 -83 113c0 61 -16 80 -40 80c-32 0 -61 -23 -61 -140v-97h112l-25 -48h-87v-351c0 -70 30 -96 94 -96v-13h-356v13c46 0 79 27 79 89v358h-56l119 154c76 99 118 143 205 143c109 0 179 -63 179 -129c0 -49 -39 -76 -80 -76z" />
    <glyph glyph-name="g" unicode="g" horiz-adv-x="598" 
d="M287 -178c-116 0 -252 23 -252 100c0 44 44 74 101 94c-60 21 -100 51 -100 103c0 57 39 98 116 141c-54 30 -87 61 -87 112c0 93 131 148 235 148c0 86 32 170 122 170c52 0 92 -34 92 -84s-35 -77 -72 -77c-49 0 -66 62 -99 62c-16 0 -30 -13 -30 -71
c82 0 208 -56 208 -148c0 -72 -87 -139 -227 -139c-52 0 -83 7 -126 21c-19 -14 -25 -26 -25 -39c0 -58 94 -56 132 -56h73c153 0 224 -56 224 -148c0 -105 -117 -189 -285 -189zM358 375c0 57 -7 133 -64 133c-58 0 -66 -75 -66 -133c0 -57 9 -132 66 -132s64 75 64 132z
M463 -68c0 42 -42 70 -141 70h-84c-33 0 -49 3 -76 8c-27 -21 -30 -36 -30 -55c0 -70 78 -119 171 -119c112 0 160 46 160 96z" />
    <glyph glyph-name="h" unicode="h" horiz-adv-x="728" 
d="M618 385v-294c0 -56 22 -78 79 -78v-13h-312v13c32 0 51 15 51 57v302c0 54 -20 73 -56 73c-22 0 -46 -9 -78 -36v-339c0 -42 19 -57 51 -57v-13h-313v13c58 0 79 22 79 78v501c0 56 -21 78 -79 78v12s57 10 133 34c77 24 129 46 129 46v-336c60 57 128 94 188 94
c81 0 128 -41 128 -135z" />
    <glyph glyph-name="i" unicode="i" horiz-adv-x="410" 
d="M381 0h-341v13c58 0 79 22 79 78v258c0 56 -21 78 -79 78v13s57 10 133 33c77 24 129 47 129 47v-429c0 -56 21 -78 79 -78v-13zM207 765c57 0 104 -46 104 -103s-47 -103 -104 -103s-103 46 -103 103s46 103 103 103z" />
    <glyph glyph-name="j" unicode="j" horiz-adv-x="405" 
d="M207 765c57 0 104 -46 104 -103s-47 -103 -104 -103s-103 46 -103 103s46 103 103 103zM119 349c0 56 -21 78 -79 78v13s57 10 133 33c77 24 129 47 129 47v-482c0 -92 3 -152 -104 -211c-70 -39 -203 -49 -276 -4c-37 23 -52 60 -52 91c0 26 13 50 42 64
c22 11 54 11 78 -5c42 -28 38 -68 38 -112c0 -20 3 -42 23 -53c12 -6 28 -7 42 3c29 19 26 95 26 118v420z" />
    <glyph glyph-name="k" unicode="k" horiz-adv-x="693" 
d="M302 288l23 21c71 65 112 113 112 155c0 16 -10 29 -24 31v13h219v-13c-67 -10 -150 -54 -212 -104l183 -277c42 -64 68 -92 130 -101v-13h-272l-159 271v-180c0 -56 21 -78 79 -78v-13h-341v13c58 0 79 22 79 78v501c0 56 -21 78 -79 78v12s57 10 133 34
c77 24 129 46 129 46v-474z" />
    <glyph glyph-name="l" unicode="l" horiz-adv-x="416" 
d="M119 592c0 56 -21 78 -79 78v12s57 10 133 34c77 24 129 46 129 46v-671c0 -56 21 -78 79 -78v-13h-341v13c58 0 79 22 79 78v501z" />
    <glyph glyph-name="m" unicode="m" horiz-adv-x="1044" 
d="M1015 0h-313v13c33 0 51 15 51 57v302c0 54 -19 73 -56 73c-21 0 -45 -9 -78 -36v-339c0 -42 19 -57 52 -57v-13h-286v13c32 0 51 15 51 57v302c0 54 -20 73 -56 73c-22 0 -46 -9 -78 -36v-339c0 -42 19 -57 51 -57v-13h-313v13c58 0 79 22 79 78v258c0 56 -21 78 -79 78
v13s57 10 133 33c77 24 129 47 129 47v-94c60 57 128 94 188 94c68 0 113 -29 124 -96c64 59 135 96 194 96c81 0 128 -41 128 -135v-294c0 -56 22 -78 79 -78v-13z" />
    <glyph glyph-name="n" unicode="n" horiz-adv-x="727" 
d="M618 385v-294c0 -56 22 -78 79 -78v-13h-312v13c32 0 51 15 51 57v302c0 54 -20 73 -56 73c-22 0 -46 -9 -78 -36v-339c0 -42 19 -57 51 -57v-13h-313v13c58 0 79 22 79 78v258c0 56 -21 78 -79 78v13s57 10 133 33c77 24 129 47 129 47v-94c60 57 128 94 188 94
c81 0 128 -41 128 -135z" />
    <glyph glyph-name="o" unicode="o" horiz-adv-x="622" 
d="M593 253c0 -159 -129 -265 -276 -265s-277 106 -277 265c0 160 130 267 277 267s276 -107 276 -267zM396 253c0 142 -8 256 -79 256s-81 -114 -81 -256s10 -254 81 -254s79 112 79 254z" />
    <glyph glyph-name="p" unicode="p" horiz-adv-x="661" 
d="M631 296c0 -203 -120 -308 -243 -308c-31 0 -52 8 -86 32v-125c0 -56 21 -77 79 -77v-13h-341v13c58 0 79 21 79 77v454c0 56 -21 78 -79 78v13s57 10 133 33c77 24 129 47 129 47v-63c52 43 97 63 145 63c102 0 184 -81 184 -224zM451 256c0 109 -31 207 -92 207
c-17 0 -34 -7 -57 -23v-387c0 -17 16 -34 44 -34c77 0 105 144 105 237z" />
    <glyph glyph-name="q" unicode="q" horiz-adv-x="663" 
d="M643 -195h-340v13c57 0 79 21 79 77v157c-53 -44 -98 -64 -144 -64c-109 0 -198 87 -198 241c0 181 127 291 281 291c77 0 163 -40 186 -40c17 0 37 10 46 52h11v-637c0 -56 22 -77 79 -77v-13zM382 69v340c0 61 -20 99 -61 99c-68 0 -91 -107 -91 -250
c0 -174 42 -218 91 -218c18 0 36 9 61 29z" />
    <glyph glyph-name="r" unicode="r" horiz-adv-x="513" 
d="M302 91c0 -56 21 -78 79 -78v-13h-341v13c58 0 79 22 79 78v258c0 56 -21 78 -79 78v13s57 10 133 33c77 24 124 46 124 46v-147c24 72 78 148 146 148c53 0 93 -38 93 -89c0 -54 -40 -85 -75 -85c-63 0 -79 72 -109 72c-24 0 -50 -33 -50 -120v-207z" />
    <glyph glyph-name="s" unicode="s" horiz-adv-x="524" 
d="M494 174c0 -109 -88 -186 -207 -186c-73 0 -127 15 -200 38l-32 10l-14 205h8c47 -107 144 -240 238 -240c46 0 80 30 80 73c0 45 -25 72 -111 100l-53 17c-95 31 -164 68 -164 163c0 89 87 166 203 166c92 0 185 -26 185 -26l15 -163h-8c-52 100 -129 178 -192 178
c-41 0 -68 -25 -68 -69c0 -55 58 -81 113 -98l58 -18c98 -30 149 -72 149 -150z" />
    <glyph glyph-name="t" unicode="t" horiz-adv-x="437" 
d="M452 70c-70 -52 -131 -82 -188 -82c-85 0 -145 55 -145 142v330h-118s90 42 174 114c87 75 127 137 127 137v-203h127l-24 -48h-103v-298c0 -65 35 -97 86 -97c23 0 40 7 60 14z" />
    <glyph glyph-name="u" unicode="u" horiz-adv-x="712" 
d="M605 153c0 -58 29 -82 77 -82v-9s-65 -14 -130 -34c-74 -22 -131 -43 -131 -43v96c-62 -51 -124 -93 -182 -93c-79 0 -139 48 -139 139v269c0 59 -33 85 -79 85v14s79 4 136 10c51 5 125 15 125 15v-365c0 -63 33 -90 67 -90c20 0 39 7 73 37v294c0 59 -32 85 -79 85v14
s79 4 136 10c52 5 126 15 126 15v-367z" />
    <glyph glyph-name="v" unicode="v" horiz-adv-x="618" 
d="M628 495c-52 -17 -102 -78 -139 -152l-182 -362l-201 415c-37 77 -73 99 -105 99v13h333v-13c-31 -7 -47 -21 -47 -42c0 -28 17 -57 37 -99l75 -157l9 18c36 72 61 133 61 196c0 56 -26 84 -41 84v13h200v-13z" />
    <glyph glyph-name="w" unicode="w" horiz-adv-x="985" 
d="M995 495c-87 -31 -168 -165 -193 -218l-144 -300l-172 368l-176 -368l-201 419c-27 56 -46 90 -108 99v13h315v-13c-37 -10 -44 -28 -14 -91l98 -205l79 165l-39 76c-19 37 -36 48 -74 55v13h324l-1 -13c-33 -4 -46 -16 -46 -37c0 -30 16 -64 36 -107l70 -154l27 59
c23 51 42 109 42 158c0 43 -20 75 -52 81v13h229v-13z" />
    <glyph glyph-name="x" unicode="x" horiz-adv-x="674" 
d="M683 0h-355v13c23 0 50 21 50 44c0 33 -30 70 -67 122l-29 40c-45 -59 -61 -106 -61 -158c0 -28 17 -48 38 -48v-13h-258v13c93 23 228 165 273 219l-108 151c-47 65 -73 98 -134 112v13h326v-13c-13 0 -29 -14 -29 -28c0 -13 9 -30 17 -42l58 -82c50 58 56 74 56 99
c0 21 -6 39 -30 53v13h210v-13c-72 -19 -159 -93 -228 -164l160 -225c39 -54 55 -85 111 -93v-13z" />
    <glyph glyph-name="y" unicode="y" horiz-adv-x="634" 
d="M644 495c-71 -19 -139 -131 -161 -176l-183 -368c-42 -84 -88 -165 -183 -165c-74 0 -121 41 -121 104c0 54 40 86 88 86c73 0 89 -85 132 -85c18 0 33 7 49 28c11 13 24 39 40 70l-207 429c-25 52 -45 69 -97 77v13h339v-13c-23 -3 -39 -5 -48 -25
c-15 -30 12 -77 32 -119l79 -161c32 64 72 143 72 209c0 54 -19 88 -63 96v13h232v-13z" />
    <glyph glyph-name="z" unicode="z" horiz-adv-x="607" 
d="M556 250l-83 -268c-20 13 -39 18 -59 18h-401l320 495c-87 -16 -218 -80 -277 -193l-11 2l73 231c21 -20 35 -27 64 -27h367l-320 -495c109 0 246 106 316 240z" />
    <glyph glyph-name="braceleft" unicode="{" horiz-adv-x="502" 
d="M472 682v-38c-119 -20 -163 -59 -163 -144v-122c0 -181 -120 -175 -219 -204c101 -12 215 -21 215 -215v-108c0 -93 82 -144 161 -144v-40c-164 0 -254 77 -254 185v113c0 142 -60 175 -172 187v51c117 15 175 43 175 174v123c0 95 70 182 257 182z" />
    <glyph glyph-name="bar" unicode="|" horiz-adv-x="119" 
d="M90 -152h-50v834h50v-834z" />
    <glyph glyph-name="braceright" unicode="}" horiz-adv-x="502" 
d="M40 682c188 0 258 -87 258 -182v-123c0 -131 58 -159 174 -174v-51c-111 -12 -171 -45 -171 -187v-113c0 -108 -90 -185 -255 -185v40c80 0 162 51 162 144v108c0 194 113 203 215 215c-100 29 -219 23 -219 204v122c0 85 -44 124 -164 144v38z" />
    <glyph glyph-name="asciitilde" unicode="~" horiz-adv-x="373" 
d="M343 693c-12 -46 -31 -126 -97 -126c-41 0 -89 47 -132 47c-29 0 -45 -14 -61 -47h-13c13 55 33 126 99 126c46 0 78 -47 128 -47c39 0 54 27 64 47h12z" />
    <glyph glyph-name="exclamdown" unicode="&#xa1;" horiz-adv-x="276" 
d="M273 278h-233v8c43 0 58 14 58 56v199c0 42 -10 52 -44 52h-18v7s45 17 92 43c51 27 88 51 88 51v-352c0 -42 16 -56 57 -56v-8z" />
    <glyph glyph-name="cent" unicode="&#xa2;" horiz-adv-x="563" 
d="M165 120c-74 42 -125 121 -125 224c0 156 122 276 276 276c11 0 23 -1 35 -2l24 64h19l-25 -67c96 -19 154 -92 154 -159c0 -51 -32 -90 -83 -90c-40 0 -82 33 -82 90c0 23 16 51 16 89c0 16 -6 31 -16 42c0 1 -112 -303 -112 -303c31 -44 78 -64 131 -64
c54 0 114 22 158 76l7 -3c-48 -135 -126 -204 -251 -204c-40 0 -76 8 -110 22l-41 -111h-20zM344 601c-9 6 -19 8 -28 8c-50 0 -107 -47 -107 -183c0 -50 9 -91 25 -122z" />
    <glyph glyph-name="sterling" unicode="&#xa3;" horiz-adv-x="662" 
d="M632 295c0 -132 -54 -307 -215 -307c-54 0 -112 22 -173 69c-44 -48 -74 -67 -118 -67s-86 25 -86 72c0 70 71 110 179 110c-6 73 -32 99 -60 158l-19 40h-69v43h53c-5 20 -8 41 -8 60c0 131 121 221 223 221c119 0 201 -74 201 -148c0 -55 -36 -79 -76 -79
c-32 0 -72 33 -72 98c0 26 6 51 6 68c0 31 -28 49 -58 49c-40 1 -87 -36 -87 -102c0 -41 18 -76 47 -140l13 -29h153v-43h-137c6 -29 11 -52 11 -77c1 -38 -7 -74 -30 -123l61 -10c19 -3 163 -30 210 19c29 31 39 80 41 118h10zM212 82c-37 20 -62 31 -92 31
c-36 0 -68 -24 -68 -51c4 -35 32 -52 71 -52c44 0 68 25 89 72z" />
    <glyph glyph-name="fraction" unicode="&#x2044;" horiz-adv-x="803" 
d="M501 99c0 -57 32 -86 96 -86v-13h-390v13c65 0 95 29 95 86v176l-162 277c-42 71 -71 109 -139 118v12h398v-12c-34 0 -57 -16 -57 -50c0 -37 26 -78 51 -120l101 -169l29 49c47 79 76 135 76 195c0 64 -26 92 -51 95v12h265v-12c-86 -26 -159 -116 -208 -191l-104 -159
v-221zM284 880c40 0 74 -34 74 -74c0 -41 -34 -74 -74 -74s-74 33 -74 74c0 40 34 74 74 74zM521 880c40 0 74 -34 74 -74c0 -41 -34 -74 -74 -74c-41 0 -74 33 -74 74c0 40 33 74 74 74z" />
    <glyph glyph-name="florin" unicode="&#x192;" horiz-adv-x="905" 
d="M537 671c51 62 95 86 164 86c110 0 180 -63 180 -129c0 -49 -40 -76 -80 -76c-46 0 -83 26 -83 113c0 61 -17 80 -40 80c-32 0 -62 -23 -62 -140v-97h113l-26 -48h-87v-351c0 -70 31 -96 95 -96v-13h-671v13c46 0 79 27 79 89v358h-56l119 154c80 104 131 143 205 143
c62 0 121 -34 150 -86zM373 13c40 0 61 23 61 89v358h-132v-351c0 -69 24 -96 71 -96zM434 669c0 47 -28 76 -47 76c-42 0 -85 -39 -85 -163v-74h132v161z" />
    <glyph glyph-name="currency" unicode="&#xa4;" horiz-adv-x="363" 
d="M346 402c0 0 -14 -36 -24 -70c-11 -35 -19 -71 -19 -71h-8c4 12 -1 17 -17 17h-238c0 55 23 85 57 116l27 24c66 58 86 90 86 130c0 43 -30 73 -74 73c-30 0 -54 -13 -70 -46h-10c31 94 84 119 145 119c77 0 132 -54 132 -118c0 -83 -72 -117 -139 -142l-38 -14
c-26 -10 -50 -27 -80 -58h171c51 0 72 10 90 41z" />
    <glyph glyph-name="quotesingle" unicode="'" horiz-adv-x="154" 
d="M94 358h-21l-24 183c-4 29 -29 141 32 141c63 0 39 -107 35 -139z" />
    <glyph glyph-name="quotedblleft" unicode="&#x201c;" horiz-adv-x="465" 
d="M436 455c0 -54 -38 -88 -83 -88c-54 0 -100 34 -100 110s61 159 154 217l4 -12c-40 -28 -58 -56 -58 -90c0 -56 83 -54 83 -137zM223 455c0 -54 -38 -88 -83 -88c-54 0 -100 34 -100 110s61 159 154 217l4 -12c-40 -28 -58 -56 -58 -90c0 -56 83 -54 83 -137z" />
    <glyph glyph-name="guillemotleft" unicode="&#xab;" horiz-adv-x="395" 
d="M366 414c0 -89 -89 -144 -160 -144v-81h-6v81c-81 0 -160 42 -160 95c0 31 25 47 46 47c44 0 56 -38 61 -83c3 -23 21 -42 53 -49v149c-102 32 -144 68 -144 129c0 75 74 134 145 134v46h7v-46c91 0 147 -42 147 -83c0 -23 -21 -42 -41 -42c-37 0 -54 31 -64 73
c-5 23 -15 36 -42 44v-138l24 -8c67 -22 134 -46 134 -124zM201 550v134c-33 0 -60 -23 -60 -67c0 -37 19 -51 60 -67zM206 426v-146c55 0 75 35 75 72c0 41 -30 58 -75 74z" />
    <glyph glyph-name="guilsinglleft" unicode="&#x2039;" horiz-adv-x="372" 
d="M342 430c0 -86 -83 -160 -166 -160c-91 0 -136 38 -136 86c0 40 24 61 52 61c29 0 50 -24 50 -53c0 -18 -7 -39 -7 -53c0 -17 18 -33 41 -33c33 0 63 28 63 92c0 66 -29 127 -91 140v7c44 8 68 31 68 74c0 30 -24 55 -54 55c-26 0 -43 -7 -61 -38h-9c20 57 55 86 111 86
c71 0 109 -38 109 -87c0 -23 -8 -46 -33 -63c46 -30 63 -67 63 -114z" />
    <glyph glyph-name="guilsinglright" unicode="&#x203a;" horiz-adv-x="437" 
d="M426 458c-10 -15 -25 -42 -33 -63h-51v-43c0 -49 18 -66 65 -66v-8h-250v8c53 0 74 18 74 66v42h-170c-8 19 -12 28 -21 43l226 250h76v-245c49 0 57 2 75 21zM231 439v165l-148 -165h148z" />
    <glyph glyph-name="fi" unicode="&#xfb01;" horiz-adv-x="728" 
d="M619 520v-429c0 -56 22 -78 79 -78v-13h-658v13c46 0 79 27 79 89v358h-56l119 154c76 99 118 143 205 143c109 0 179 -63 179 -129c0 -49 -39 -76 -80 -76c-45 0 -83 26 -83 113c0 61 -16 80 -40 80c-32 0 -61 -23 -61 -140v-97h112c110 0 205 12 205 12zM377 13
c38 0 60 28 60 78v291c0 50 -28 78 -76 78h-59v-351c0 -62 27 -96 75 -96z" />
    <glyph glyph-name="fl" unicode="&#xfb02;" horiz-adv-x="393" 
d="M364 411c0 -80 -71 -141 -157 -141c-93 0 -167 70 -167 180c0 108 88 207 246 259l3 -8c-65 -38 -103 -102 -120 -164c13 4 23 8 38 8c89 0 157 -56 157 -134zM263 408c0 72 -10 130 -56 130c-45 0 -57 -58 -57 -130c0 -73 9 -131 57 -131c46 0 56 58 56 131z" />
    <glyph glyph-name="endash" unicode="&#x2013;" horiz-adv-x="400" 
d="M371 220h-331v80h331v-80z" />
    <glyph glyph-name="daggerdbl" unicode="&#x2021;" horiz-adv-x="370" 
d="M340 682c0 -20 -7 -47 -31 -92l-69 -131c-29 -55 -41 -107 -41 -181h-132c0 84 36 141 129 218l69 57c13 10 22 20 41 46h-151c-39 0 -83 -1 -106 -41h-9c3 5 3 7 5 14c0 0 13 38 20 65c8 27 15 54 15 68h8c-3 -10 11 -23 44 -23h208z" />
    <glyph glyph-name="periodcentered" unicode="&#xb7;" horiz-adv-x="219" 
d="M189 -107c0 -47 -44 -82 -83 -82c-37 0 -66 19 -66 42c0 7 4 14 11 14c14 0 13 -9 23 -28c7 -14 13 -18 26 -18c14 0 33 14 33 35c0 41 -34 60 -78 62c33 31 47 45 66 92l9 -5c-7 -19 -9 -24 -13 -33c39 -11 72 -34 72 -79z" />
    <glyph glyph-name="bullet" unicode="&#x2022;" horiz-adv-x="267" 
d="M139 498c54 0 99 -44 99 -99c0 -54 -45 -98 -99 -98s-99 44 -99 98c0 55 45 99 99 99z" />
    <glyph glyph-name="quotedblright" unicode="&#x201d;" horiz-adv-x="465" 
d="M223 584c0 -76 -60 -159 -154 -217l-4 12c41 28 58 56 58 90c0 57 -83 54 -83 138c0 53 38 87 83 87c55 0 100 -34 100 -110zM436 584c0 -76 -60 -159 -154 -217l-4 12c41 28 58 56 58 90c0 57 -83 54 -83 138c0 53 38 87 83 87c55 0 100 -34 100 -110z" />
    <glyph glyph-name="guillemotright" unicode="&#xbb;" horiz-adv-x="351" 
d="M113 350c-43 25 -73 71 -73 131c0 91 71 162 161 162c7 0 14 -1 21 -2l14 38h12l-16 -40c57 -12 89 -54 89 -93c0 -29 -17 -52 -47 -52c-24 0 -48 19 -48 52c0 14 9 30 9 53c0 9 -3 17 -9 24l-65 -177c18 -26 45 -38 76 -38s67 13 92 45l4 -2c-27 -79 -74 -120 -146 -120
c-23 0 -44 5 -64 13l-24 -64h-12zM218 631c-5 4 -12 5 -17 5c-28 0 -62 -28 -62 -107c0 -29 5 -53 14 -71z" />
    <glyph glyph-name="perthousand" unicode="&#x2030;" horiz-adv-x="899" 
d="M870 150c-46 -91 -103 -162 -187 -162c-61 0 -106 22 -206 119c-57 -88 -123 -119 -197 -119c-117 0 -240 93 -240 261c0 118 77 216 196 282c0 72 57 163 194 163c80 0 146 -48 146 -142c0 -57 -29 -114 -76 -179l84 -95l28 87c15 45 42 166 134 166c43 0 87 -35 87 -96
c0 -56 -29 -90 -70 -90c-16 0 -35 6 -53 24c-17 16 -24 31 -41 31c-20 -1 -44 -44 -69 -118l-6 -18c89 -108 148 -147 204 -147c21 0 35 6 63 37zM492 384c19 39 32 96 32 146c0 117 -49 152 -94 152c-26 0 -49 -20 -49 -60c0 -73 71 -182 111 -238zM464 122l-64 79
c-85 105 -150 216 -164 313c-38 -32 -54 -78 -54 -132c0 -176 111 -275 215 -275c24 0 49 5 67 15z" />
    <glyph glyph-name="questiondown" unicode="&#xbf;" horiz-adv-x="410" 
d="M381 454c0 -81 -33 -187 -131 -187c-33 0 -68 13 -105 43c-27 -31 -45 -42 -71 -42c-28 0 -52 15 -52 44c0 42 42 66 107 66c-3 45 -17 63 -35 97l-13 24h-41v26h33c-4 11 -6 24 -6 37c0 79 74 134 136 134c72 0 122 -45 122 -90c0 -33 -22 -49 -46 -49
c-20 0 -45 21 -45 60c0 16 5 32 5 43c0 18 -18 28 -36 28c-24 1 -52 -22 -52 -61c0 -25 12 -47 28 -86l7 -17h94v-26h-84c4 -18 7 -33 7 -46c1 -25 -4 -47 -19 -75l37 -7c12 -2 100 -17 128 12c19 19 25 49 25 72h7zM126 323c-23 12 -38 20 -57 20c-22 0 -40 -15 -40 -31
c2 -21 18 -32 43 -32c26 0 40 15 54 43z" />
    <glyph glyph-name="grave" unicode="`" horiz-adv-x="264" 
d="M235 575l-8 -8c-16 14 -27 24 -50 35l-26 12c-18 8 -103 40 -110 84c-3 17 1 36 19 52c12 11 30 17 49 12c45 -11 68 -80 84 -113l15 -31c7 -14 10 -18 27 -43z" />
    <glyph glyph-name="acute" unicode="&#xb4;" horiz-adv-x="264" 
d="M234 698c-7 -44 -92 -75 -110 -84l-25 -12c-23 -11 -35 -21 -51 -35l-8 8c17 25 20 29 27 43l15 31c16 33 39 102 84 113c19 5 37 -1 49 -12c18 -16 22 -35 19 -52z" />
    <glyph glyph-name="circumflex" unicode="&#x2c6;" horiz-adv-x="400" 
d="M370 732h-14l-151 76l-151 -76h-14l165 176z" />
    <glyph glyph-name="tilde" unicode="&#x2dc;" horiz-adv-x="373" 
d="M343 858c-12 -46 -31 -126 -97 -126c-41 0 -89 47 -132 47c-29 0 -45 -15 -61 -47h-13c13 55 33 126 99 126c46 0 78 -47 128 -47c39 0 54 26 64 47h12z" />
    <glyph glyph-name="dieresis" unicode="&#xa8;" horiz-adv-x="455" 
d="M114 715c41 0 74 -34 74 -74s-33 -74 -74 -74c-40 0 -74 34 -74 74s34 74 74 74zM351 715c41 0 74 -34 74 -74s-33 -74 -74 -74c-40 0 -74 34 -74 74s34 74 74 74z" />
    <glyph glyph-name="ring" unicode="&#x2da;" horiz-adv-x="269" 
d="M240 667c0 -56 -45 -100 -100 -100s-100 44 -100 100c0 55 45 99 100 99s100 -44 100 -99zM195 667c0 30 -24 55 -55 55s-55 -25 -55 -55c0 -31 24 -56 55 -56s55 25 55 56z" />
    <glyph glyph-name="emdash" unicode="&#x2014;" horiz-adv-x="657" 
d="M626 217h-586v79h586v-79z" />
    <glyph glyph-name="AE" unicode="&#xc6;" horiz-adv-x="1192" 
d="M561 637l-237 -362h251v307c0 23 -5 40 -14 55zM575 262h-256l-10 -16c-104 -166 -56 -233 22 -233v-13h-324v13c125 19 226 142 289 239l257 394c-16 16 -39 24 -73 24v12h603l39 -238h-11c-63 159 -148 226 -308 226h-29v-312c114 0 185 79 185 152h10v-319h-10
c0 73 -71 152 -185 152v-263c0 -51 20 -67 57 -67c162 0 286 160 325 284h11l-52 -297h-635v13c65 0 95 29 95 86v163z" />
    <glyph glyph-name="ordfeminine" unicode="&#xaa;" horiz-adv-x="393" 
d="M364 516c0 -110 -88 -208 -246 -261l-3 8c65 40 103 103 121 164c-14 -4 -24 -8 -39 -8c-89 0 -157 56 -157 135s71 140 157 140c93 0 167 -69 167 -178zM254 557c0 72 -8 130 -57 130c-46 0 -56 -58 -56 -130c0 -73 10 -130 56 -130s57 57 57 130z" />
    <glyph glyph-name="Oslash" unicode="&#xd8;" horiz-adv-x="798" 
d="M544 465l-278 -269c23 -149 79 -197 138 -197c75 0 147 78 147 342c0 48 -2 89 -7 124zM264 215l278 269c-21 151 -78 199 -138 199c-75 0 -147 -77 -147 -342c0 -47 2 -90 7 -126zM143 98c-63 63 -103 149 -103 243c0 195 169 353 364 353c96 0 186 -38 252 -99l94 90
l18 -3l-101 -98c63 -63 101 -148 101 -243c0 -195 -168 -353 -364 -353c-95 0 -184 38 -250 99l-94 -90l-19 3z" />
    <glyph glyph-name="OE" unicode="&#x152;" horiz-adv-x="1174" 
d="M551 341c0 265 -72 342 -147 342s-147 -77 -147 -342c0 -264 72 -342 147 -342s147 78 147 342zM496 682h564l40 -238h-11c-63 159 -149 226 -309 226h-29v-312c114 0 185 79 185 152h11v-319h-11c0 73 -71 152 -185 152v-263c0 -51 20 -67 58 -67c161 0 286 160 324 284
h11l-51 -297h-596c-30 -8 -61 -12 -93 -12c-195 0 -364 158 -364 353s169 353 364 353c32 0 62 -4 92 -12z" />
    <glyph glyph-name="ordmasculine" unicode="&#xba;" horiz-adv-x="443" 
d="M413 482c0 -125 -90 -212 -186 -212c-97 0 -187 87 -187 212s90 212 187 212c96 0 186 -87 186 -212zM287 482c0 134 -12 205 -60 205s-60 -71 -60 -205s12 -205 60 -205s60 71 60 205z" />
    <glyph glyph-name="ae" unicode="&#xe6;" horiz-adv-x="914" 
d="M711 346c0 128 -32 163 -69 163c-52 0 -85 -82 -85 -197h154v34zM369 134v154s-17 -5 -33 -11c-58 -23 -87 -66 -87 -126c0 -75 30 -95 58 -95c34 0 62 29 62 78zM400 125c-46 -101 -102 -137 -211 -137c-88 0 -144 47 -144 111c0 76 90 121 208 162l116 40v94
c0 74 -30 98 -62 98c-50 0 -80 -45 -85 -120c-4 -71 -50 -113 -107 -113c-37 0 -69 26 -69 72c0 51 43 93 122 130c53 24 153 58 245 58c45 0 78 -9 101 -32c38 21 82 32 128 32c136 0 243 -101 243 -219h-327c0 -136 69 -188 164 -188c65 0 121 27 162 95l12 -4
c-49 -140 -130 -216 -267 -216c-95 0 -183 53 -229 137z" />
    <glyph glyph-name="dotlessi" unicode="&#x131;" horiz-adv-x="410" 
d="M381 0h-341v13c58 0 79 22 79 78v258c0 56 -21 78 -79 78v13s57 10 133 33c77 24 129 47 129 47v-429c0 -56 21 -78 79 -78v-13z" />
    <glyph glyph-name="oslash" unicode="&#xf8;" horiz-adv-x="622" 
d="M395 320l-157 -152c5 -99 22 -169 79 -169c71 0 79 112 79 254c0 23 0 45 -1 67zM237 188l157 151c-3 100 -22 170 -77 170c-71 0 -81 -114 -81 -256c0 -22 0 -44 1 -65zM113 70c-45 46 -73 109 -73 183c0 160 130 267 277 267c73 0 141 -26 191 -72l66 63l19 -3l-74 -70
c46 -46 74 -110 74 -185c0 -159 -129 -265 -276 -265c-73 0 -141 26 -193 72l-65 -63l-19 3z" />
    <glyph glyph-name="oe" unicode="&#x153;" horiz-adv-x="942" 
d="M739 346c0 128 -33 163 -69 163c-53 0 -85 -82 -85 -197h154v34zM396 253c0 142 -8 256 -79 256s-81 -114 -81 -256s10 -254 81 -254s79 112 79 254zM492 45c-48 -36 -110 -57 -175 -57c-147 0 -277 106 -277 265c0 160 130 267 277 267c67 0 130 -23 179 -62
c46 38 107 62 174 62c136 0 242 -101 242 -219h-326c0 -136 69 -188 164 -188c65 0 121 27 161 95l13 -4c-49 -140 -130 -216 -267 -216c-61 0 -119 21 -165 57z" />
    <glyph glyph-name="germandbls" unicode="&#xdf;" horiz-adv-x="744" 
d="M714 188c0 -101 -73 -200 -220 -200c-41 0 -96 12 -154 74l7 8c27 -23 47 -34 73 -34c51 0 99 43 99 145c0 212 -89 283 -193 283v13c90 0 125 26 125 89c0 73 -41 110 -113 110h-36v-676h-262v13c51 0 79 22 79 92v406c0 127 71 183 220 183c166 0 294 -60 294 -148
c0 -51 -43 -87 -182 -87c166 -42 263 -130 263 -271z" />
    <glyph glyph-name="trademark" unicode="&#x2122;" horiz-adv-x="894" 
d="M161 678c-54 -15 -102 -62 -116 -107h-5l14 126c18 -12 25 -15 42 -15h229c17 0 24 3 41 15l15 -126h-4c-15 45 -62 92 -117 107v-287c0 -27 16 -42 49 -42v-8h-196v8c33 0 48 15 48 42v287zM865 682v-4c-33 0 -47 -15 -47 -44v-241c0 -29 14 -44 47 -44v-8h-195v8
c32 0 48 15 48 44v268l-133 -333l-130 328v-193c0 -81 34 -114 74 -114v-8h-163v8c39 0 82 35 82 114v160c0 35 -21 55 -66 55v4h169l82 -212l86 212h146z" />
    <glyph glyph-name="degree" unicode="&#xb0;" horiz-adv-x="382" 
d="M352 406c0 -74 -66 -135 -160 -135s-152 47 -152 116c0 41 21 65 69 97c-39 32 -51 58 -51 88c0 74 59 122 150 122c72 0 117 -47 117 -88c0 -36 -14 -57 -57 -87c54 -32 84 -61 84 -113zM284 594c0 64 -33 93 -75 93c-33 0 -59 -20 -59 -67c0 -44 39 -59 99 -92l11 -6
c18 31 24 45 24 72zM162 457l-30 14c-7 3 -6 3 -15 8c-14 -30 -18 -57 -18 -81c0 -58 33 -121 93 -121c46 0 73 32 73 74c0 57 -50 81 -103 106z" />
    <glyph glyph-name="registered" unicode="&#xae;" horiz-adv-x="411" 
d="M213 694c94 0 169 -76 169 -169c0 -95 -74 -173 -169 -173s-173 78 -173 173c0 93 79 169 173 169zM59 525c0 -84 70 -154 154 -154s151 70 151 154c0 83 -68 151 -151 151c-84 0 -154 -68 -154 -151zM115 622h74c63 0 106 -12 106 -48c0 -37 -45 -47 -67 -51
c61 -17 41 -87 63 -87c13 0 17 19 18 35h12c-2 -20 -8 -51 -43 -51c-44 0 -35 52 -39 72c-3 13 -17 26 -32 26h-26v-54c0 -25 4 -28 35 -28v-12h-101v12c24 0 33 1 33 21v133c0 17 -6 20 -33 20v12zM254 576c-1 20 -16 35 -47 35c-20 0 -26 -4 -26 -26v-53h32
c37 0 42 28 41 44z" />
    <glyph glyph-name="copyright" unicode="&#xa9;" horiz-adv-x="411" 
d="M280 630h10v-83h-9c-7 30 -28 73 -68 73c-37 0 -61 -38 -61 -96c0 -49 23 -91 68 -91c27 0 48 19 66 46l9 -5c-27 -42 -51 -56 -89 -56c-51 0 -96 49 -96 109c0 61 52 105 99 105c29 0 43 -13 57 -19c7 -3 11 8 14 17zM213 694c94 0 169 -76 169 -169
c0 -95 -74 -173 -169 -173s-173 78 -173 173c0 93 79 169 173 169zM59 525c0 -84 70 -154 154 -154s151 70 151 154c0 83 -68 151 -151 151c-84 0 -154 -68 -154 -151z" />
    <glyph glyph-name="Aacute" unicode="&#xc1;" horiz-adv-x="850" 
d="M860 0h-420v13c66 0 96 36 67 111l-54 138h-206c-2 -5 -5 -16 -5 -16c-53 -170 7 -233 84 -233v-13h-324v13c120 19 188 141 225 239l112 293c-11 23 -20 36 -40 55c56 30 134 97 176 148l240 -600c42 -105 84 -135 145 -135v-13zM448 275l-102 251l-96 -251h198z
M565 863c-7 -44 -92 -75 -109 -84l-26 -13c-23 -12 -35 -20 -50 -34l-8 8c17 24 19 28 26 43l15 31c16 33 40 102 84 113c20 5 38 -1 49 -13c18 -16 22 -34 19 -51z" />
    <glyph glyph-name="Acircumflex" unicode="&#xc2;" horiz-adv-x="850" 
d="M607 732h-13l-151 76l-151 -76h-14l165 176zM346 526l102 -251h-198zM440 0h420v13c-61 0 -103 30 -145 135l-240 600c-42 -51 -120 -118 -176 -148c20 -19 29 -32 40 -55l-112 -293c-37 -98 -105 -220 -225 -239v-13h324v13c-77 0 -137 63 -84 233c0 0 3 11 5 16h206
l54 -138c29 -75 -1 -111 -67 -111v-13z" />
    <glyph glyph-name="Adieresis" unicode="&#xc4;" horiz-adv-x="850" 
d="M860 0h-420v13c66 0 96 36 67 111l-54 138h-206c-2 -5 -5 -16 -5 -16c-53 -170 7 -233 84 -233v-13h-324v13c120 19 188 141 225 239l112 293c-11 23 -20 36 -40 55c56 30 134 97 176 148l240 -600c42 -105 84 -135 145 -135v-13zM448 275l-102 251l-96 -251h198z
M320 880c40 0 73 -34 73 -74c0 -41 -33 -74 -73 -74c-41 0 -74 33 -74 74c0 40 33 74 74 74zM556 880c41 0 74 -34 74 -74c0 -41 -33 -74 -74 -74c-40 0 -74 33 -74 74c0 40 34 74 74 74z" />
    <glyph glyph-name="Agrave" unicode="&#xc0;" horiz-adv-x="850" 
d="M860 0h-420v13c66 0 96 36 67 111l-54 138h-206c-2 -5 -5 -16 -5 -16c-53 -170 7 -233 84 -233v-13h-324v13c120 19 188 141 225 239l112 293c-11 23 -20 36 -40 55c56 30 134 97 176 148l240 -600c42 -105 84 -135 145 -135v-13zM448 275l-102 251l-96 -251h198z
M507 774l-8 -8c-16 14 -28 24 -50 35l-26 13c-18 9 -102 39 -109 83c-3 17 1 36 18 52c12 12 30 18 50 13c44 -10 66 -80 83 -114l15 -30c7 -15 10 -19 27 -44z" />
    <glyph glyph-name="Aring" unicode="&#xc5;" horiz-adv-x="850" 
d="M860 0h-420v13c66 0 96 36 67 111l-54 138h-206c-2 -5 -5 -16 -5 -16c-53 -170 7 -233 84 -233v-13h-324v13c120 19 188 141 225 239l112 293c-11 23 -20 36 -40 55c56 30 134 97 176 148l240 -600c42 -105 84 -135 145 -135v-13zM448 275l-102 251l-96 -251h198z
M515 848c0 -55 -45 -99 -100 -99s-99 44 -99 99s44 100 99 100s100 -45 100 -100zM470 848c0 31 -24 55 -55 55c-30 0 -55 -24 -55 -55c0 -30 25 -55 55 -55c31 0 55 25 55 55z" />
    <glyph glyph-name="Atilde" unicode="&#xc3;" horiz-adv-x="850" 
d="M860 0h-420v13c66 0 96 36 67 111l-54 138h-206c-2 -5 -5 -16 -5 -16c-53 -170 7 -233 84 -233v-13h-324v13c120 19 188 141 225 239l112 293c-11 23 -20 36 -40 55c56 30 134 97 176 148l240 -600c42 -105 84 -135 145 -135v-13zM448 275l-102 251l-96 -251h198z
M591 878c-12 -47 -32 -127 -98 -127c-40 0 -89 48 -131 48c-30 0 -45 -15 -61 -48h-13c13 56 33 127 99 127c46 0 77 -48 128 -48c38 0 53 27 64 48h12z" />
    <glyph glyph-name="Ccedilla" unicode="&#xc7;" horiz-adv-x="679" 
d="M393 -12c-191 6 -353 162 -353 353c0 195 170 353 364 353c101 0 164 -22 200 -22c11 0 19 7 19 24h9l11 -290h-9c-20 78 -104 277 -230 277c-75 0 -147 -77 -147 -342c0 -264 72 -342 147 -342c121 0 219 169 237 281h11l-17 -297h-9c0 14 -7 23 -19 23
c-26 0 -64 -18 -202 -18c-4 -13 -2 -8 -6 -16c39 -11 72 -34 72 -79c0 -47 -44 -82 -83 -82c-37 0 -66 19 -66 42c0 7 4 14 11 14c14 0 13 -9 23 -28c7 -14 13 -18 26 -18c14 0 33 14 33 35c0 41 -34 60 -78 62c30 28 42 39 56 70z" />
    <glyph glyph-name="Eacute" unicode="&#xc9;" horiz-adv-x="756" 
d="M40 0v13c66 0 95 29 95 86v483c0 57 -29 88 -95 88v12h603l39 -238h-10c-64 159 -149 226 -309 226h-29v-312c114 0 185 79 185 152h11v-319h-11c0 73 -71 152 -185 152v-263c0 -51 20 -67 58 -67c161 0 286 160 324 284h11l-51 -297h-636zM505 862
c-7 -44 -92 -75 -110 -84l-25 -13c-23 -12 -35 -20 -50 -34l-8 8c16 24 19 28 26 43l15 31c16 33 40 102 84 113c20 5 37 -1 49 -13c18 -16 22 -34 19 -51z" />
    <glyph glyph-name="Ecircumflex" unicode="&#xca;" horiz-adv-x="756" 
d="M509 732h-14l-151 76l-151 -76h-14l165 176zM40 13v-13h636l51 297h-11c-38 -124 -163 -284 -324 -284c-38 0 -58 16 -58 67v263c114 0 185 -79 185 -152h11v319h-11c0 -73 -71 -152 -185 -152v312h29c160 0 245 -67 309 -226h10l-39 238h-603v-12c66 0 95 -31 95 -88
v-483c0 -57 -29 -86 -95 -86z" />
    <glyph glyph-name="Edieresis" unicode="&#xcb;" horiz-adv-x="756" 
d="M40 0v13c66 0 95 29 95 86v483c0 57 -29 88 -95 88v12h603l39 -238h-10c-64 159 -149 226 -309 226h-29v-312c114 0 185 79 185 152h11v-319h-11c0 73 -71 152 -185 152v-263c0 -51 20 -67 58 -67c161 0 286 160 324 284h11l-51 -297h-636zM245 880c40 0 74 -34 74 -74
c0 -41 -34 -74 -74 -74c-41 0 -74 33 -74 74c0 40 33 74 74 74zM481 880c41 0 74 -34 74 -74c0 -41 -33 -74 -74 -74c-40 0 -74 33 -74 74c0 40 34 74 74 74z" />
    <glyph glyph-name="Egrave" unicode="&#xc8;" horiz-adv-x="756" 
d="M40 0v13c66 0 95 29 95 86v483c0 57 -29 88 -95 88v12h603l39 -238h-10c-64 159 -149 226 -309 226h-29v-312c114 0 185 79 185 152h11v-319h-11c0 73 -71 152 -185 152v-263c0 -51 20 -67 58 -67c161 0 286 160 324 284h11l-51 -297h-636zM438 740l-8 -8
c-16 14 -28 23 -50 34l-26 13c-18 9 -103 40 -109 84c-3 17 1 35 18 51c12 12 30 18 50 13c44 -11 67 -80 83 -113l15 -31c7 -15 10 -19 27 -43z" />
    <glyph glyph-name="Iacute" unicode="&#xcd;" horiz-adv-x="461" 
d="M431 682v-12c-65 0 -96 -30 -96 -87v-483c0 -58 31 -87 96 -87v-13h-391v13c66 0 96 29 96 87v483c0 57 -30 87 -96 87v12h391zM368 863c-7 -44 -92 -75 -110 -84l-25 -13c-23 -12 -35 -20 -51 -34l-7 8c16 24 19 28 26 43l15 31c16 33 39 102 84 113c20 5 37 -1 49 -13
c18 -16 22 -34 19 -51z" />
    <glyph glyph-name="Icircumflex" unicode="&#xce;" horiz-adv-x="461" 
d="M400 732h-13l-151 76l-151 -76h-14l165 176zM431 670v12h-391v-12c66 0 96 -30 96 -87v-483c0 -58 -30 -87 -96 -87v-13h391v13c-65 0 -96 29 -96 87v483c0 57 31 87 96 87z" />
    <glyph glyph-name="Idieresis" unicode="&#xcf;" horiz-adv-x="461" 
d="M431 682v-12c-65 0 -96 -30 -96 -87v-483c0 -58 31 -87 96 -87v-13h-391v13c66 0 96 29 96 87v483c0 57 -30 87 -96 87v12h391zM116 880c41 0 74 -34 74 -74c0 -41 -33 -74 -74 -74c-40 0 -74 33 -74 74c0 40 34 74 74 74zM353 880c40 0 74 -34 74 -74
c0 -41 -34 -74 -74 -74s-74 33 -74 74c0 40 34 74 74 74z" />
    <glyph glyph-name="Igrave" unicode="&#xcc;" horiz-adv-x="461" 
d="M431 682v-12c-65 0 -96 -30 -96 -87v-483c0 -58 31 -87 96 -87v-13h-391v13c66 0 96 29 96 87v483c0 57 -30 87 -96 87v12h391zM334 740l-8 -8c-15 14 -27 22 -50 34l-26 13c-17 9 -102 40 -109 84c-3 17 1 35 19 51c12 12 29 18 49 13c44 -11 68 -80 84 -113l15 -31
c7 -15 10 -19 26 -43z" />
    <glyph glyph-name="Ntilde" unicode="&#xd1;" horiz-adv-x="937" 
d="M739 439c0 162 -84 231 -162 231v12h330v-12c-73 0 -154 -69 -154 -231v-488l-534 620v-329c0 -160 84 -229 163 -229v-13h-341v13c79 0 162 69 162 229v304c0 66 -47 124 -153 124v12h336l353 -418v175zM658 858c-12 -46 -32 -126 -98 -126c-40 0 -89 47 -131 47
c-30 0 -45 -15 -61 -47h-13c13 55 33 126 99 126c46 0 78 -47 128 -47c38 0 53 26 64 47h12z" />
    <glyph glyph-name="Oacute" unicode="&#xd3;" horiz-adv-x="798" 
d="M768 341c0 -195 -168 -353 -364 -353c-195 0 -364 158 -364 353s169 353 364 353c196 0 364 -158 364 -353zM551 341c0 265 -72 342 -147 342s-147 -77 -147 -342c0 -264 72 -342 147 -342s147 78 147 342zM565 863c-7 -44 -92 -75 -109 -84l-26 -13
c-23 -12 -35 -20 -50 -34l-8 8c17 24 19 28 26 43l15 31c16 33 40 102 84 113c20 5 38 -1 49 -13c18 -16 22 -34 19 -51z" />
    <glyph glyph-name="Ocircumflex" unicode="&#xd4;" horiz-adv-x="798" 
d="M572 732h-14l-151 76l-151 -76h-13l164 176zM551 341c0 -264 -72 -342 -147 -342s-147 78 -147 342c0 265 72 342 147 342s147 -77 147 -342zM768 341c0 195 -168 353 -364 353c-195 0 -364 -158 -364 -353s169 -353 364 -353c196 0 364 158 364 353z" />
    <glyph glyph-name="Odieresis" unicode="&#xd6;" horiz-adv-x="798" 
d="M768 341c0 -195 -168 -353 -364 -353c-195 0 -364 158 -364 353s169 353 364 353c196 0 364 -158 364 -353zM551 341c0 265 -72 342 -147 342s-147 -77 -147 -342c0 -264 72 -342 147 -342s147 78 147 342zM290 880c40 0 74 -34 74 -74c0 -41 -34 -74 -74 -74
s-74 33 -74 74c0 40 34 74 74 74zM527 880c40 0 74 -34 74 -74c0 -41 -34 -74 -74 -74c-41 0 -74 33 -74 74c0 40 33 74 74 74z" />
    <glyph glyph-name="Ograve" unicode="&#xd2;" horiz-adv-x="798" 
d="M768 341c0 -195 -168 -353 -364 -353c-195 0 -364 158 -364 353s169 353 364 353c196 0 364 -158 364 -353zM551 341c0 265 -72 342 -147 342s-147 -77 -147 -342c0 -264 72 -342 147 -342s147 78 147 342zM438 740l-8 -8c-16 14 -28 23 -50 34l-26 13
c-18 9 -103 40 -109 84c-3 17 1 35 18 51c12 12 30 18 50 13c44 -11 67 -80 83 -113l15 -31c7 -15 10 -19 27 -43z" />
    <glyph glyph-name="Otilde" unicode="&#xd5;" horiz-adv-x="798" 
d="M768 341c0 -195 -168 -353 -364 -353c-195 0 -364 158 -364 353s169 353 364 353c196 0 364 -158 364 -353zM551 341c0 265 -72 342 -147 342s-147 -77 -147 -342c0 -264 72 -342 147 -342s147 78 147 342zM571 858c-12 -46 -32 -126 -98 -126c-40 0 -88 47 -131 47
c-29 0 -45 -15 -61 -47h-13c13 55 33 126 99 126c46 0 78 -47 128 -47c39 0 53 26 64 47h12z" />
    <glyph glyph-name="Uacute" unicode="&#xda;" horiz-adv-x="851" 
d="M614 863c-7 -44 -91 -75 -109 -84l-26 -13c-22 -11 -34 -20 -50 -34l-8 8c17 24 20 28 27 43l15 31c16 33 39 102 83 113c20 5 38 -1 50 -13c17 -16 21 -34 18 -51zM135 582c0 57 -29 88 -95 88v12h391v-12c-65 0 -97 -31 -97 -88v-355c0 -75 -1 -140 67 -180
c25 -15 55 -22 101 -22c40 0 71 6 100 23c82 48 77 148 77 206v82c0 181 -35 326 -116 334v12h258v-12c-96 -22 -128 -196 -128 -334v-91c0 -79 0 -169 -105 -227c-32 -17 -86 -30 -148 -30c-79 0 -163 18 -214 49c-71 44 -91 97 -91 194v351z" />
    <glyph glyph-name="Ucircumflex" unicode="&#xdb;" horiz-adv-x="851" 
d="M135 582v-351c0 -97 20 -150 91 -194c51 -31 135 -49 214 -49c62 0 116 13 148 30c105 58 105 148 105 227v91c0 138 32 312 128 334v12h-258v-12c81 -8 116 -153 116 -334v-82c0 -58 5 -158 -77 -206c-29 -17 -60 -23 -100 -23c-46 0 -76 7 -101 22
c-68 40 -67 105 -67 180v355c0 57 32 88 97 88v12h-391v-12c66 0 95 -31 95 -88zM621 732h-14l-150 76l-151 -76h-14l165 176z" />
    <glyph glyph-name="Udieresis" unicode="&#xdc;" horiz-adv-x="851" 
d="M327 880c41 0 74 -34 74 -74c0 -41 -33 -74 -74 -74c-40 0 -74 33 -74 74c0 40 34 74 74 74zM564 880c41 0 74 -34 74 -74c0 -41 -33 -74 -74 -74c-40 0 -74 33 -74 74c0 40 34 74 74 74zM135 582c0 57 -29 88 -95 88v12h391v-12c-65 0 -97 -31 -97 -88v-355
c0 -75 -1 -140 67 -180c25 -15 55 -22 101 -22c40 0 71 6 100 23c82 48 77 148 77 206v82c0 181 -35 326 -116 334v12h258v-12c-96 -22 -128 -196 -128 -334v-91c0 -79 0 -169 -105 -227c-32 -17 -86 -30 -148 -30c-79 0 -163 18 -214 49c-71 44 -91 97 -91 194v351z" />
    <glyph glyph-name="Ugrave" unicode="&#xd9;" horiz-adv-x="851" 
d="M486 740l-8 -8c-15 14 -27 22 -50 34l-26 13c-17 9 -102 40 -109 84c-3 17 1 35 19 51c11 12 29 18 49 13c44 -11 68 -80 84 -113l15 -31c7 -15 9 -19 26 -43zM135 582c0 57 -29 88 -95 88v12h391v-12c-65 0 -97 -31 -97 -88v-355c0 -75 -1 -140 67 -180
c25 -15 55 -22 101 -22c40 0 71 6 100 23c82 48 77 148 77 206v82c0 181 -35 326 -116 334v12h258v-12c-96 -22 -128 -196 -128 -334v-91c0 -79 0 -169 -105 -227c-32 -17 -86 -30 -148 -30c-79 0 -163 18 -214 49c-71 44 -91 97 -91 194v351z" />
    <glyph glyph-name="Ydieresis" unicode="&#x178;" horiz-adv-x="803" 
d="M501 99c0 -57 32 -86 96 -86v-13h-390v13c65 0 95 29 95 86v176l-162 277c-42 71 -71 109 -139 118v12h398v-12c-34 0 -57 -16 -57 -50c0 -37 26 -78 51 -120l101 -169l29 49c47 79 76 135 76 195c0 64 -26 92 -51 95v12h265v-12c-86 -26 -159 -116 -208 -191l-104 -159
v-221zM565 863c-7 -44 -92 -75 -109 -84l-26 -13c-23 -12 -35 -20 -50 -34l-8 8c17 24 19 28 26 43l15 31c16 33 40 102 84 113c20 5 38 -1 49 -13c18 -16 22 -34 19 -51z" />
    <glyph glyph-name="aacute" unicode="&#xe1;" horiz-adv-x="666" 
d="M641 69c-58 -47 -117 -81 -168 -81c-57 0 -93 28 -104 92c-51 -71 -116 -92 -180 -92c-88 0 -144 47 -144 111c0 76 90 121 208 162l116 40v94c0 74 -30 98 -62 98c-50 0 -80 -45 -85 -120c-4 -71 -50 -113 -107 -113c-37 0 -69 26 -69 72c0 51 43 93 122 130
c53 24 153 58 245 58c95 0 138 -38 138 -170v-239c0 -33 17 -48 39 -48c12 0 26 4 46 15zM369 134v154s-17 -5 -33 -11c-58 -23 -87 -66 -87 -126c0 -75 30 -95 58 -95c34 0 62 29 62 78zM464 698c-6 -44 -91 -76 -109 -84l-26 -12c-23 -11 -34 -21 -50 -35l-8 8
c17 25 20 29 27 43l15 31c16 33 39 102 83 113c20 5 38 -1 50 -12c18 -16 21 -35 18 -52z" />
    <glyph glyph-name="acircumflex" unicode="&#xe2;" horiz-adv-x="666" 
d="M489 567h-14l-151 76l-150 -76h-14l164 177zM369 288v-154c0 -49 -28 -78 -62 -78c-28 0 -58 20 -58 95c0 60 29 103 87 126c16 6 33 11 33 11zM641 69l-5 9c-20 -11 -34 -15 -46 -15c-22 0 -39 15 -39 48v239c0 132 -43 170 -138 170c-92 0 -192 -34 -245 -58
c-79 -37 -122 -79 -122 -130c0 -46 32 -72 69 -72c57 0 103 42 107 113c5 75 35 120 85 120c32 0 62 -24 62 -98v-94l-116 -40c-118 -41 -208 -86 -208 -162c0 -64 56 -111 144 -111c64 0 129 21 180 92c11 -64 47 -92 104 -92c51 0 110 34 168 81z" />
    <glyph glyph-name="adieresis" unicode="&#xe4;" horiz-adv-x="666" 
d="M641 69c-58 -47 -117 -81 -168 -81c-57 0 -93 28 -104 92c-51 -71 -116 -92 -180 -92c-88 0 -144 47 -144 111c0 76 90 121 208 162l116 40v94c0 74 -30 98 -62 98c-50 0 -80 -45 -85 -120c-4 -71 -50 -113 -107 -113c-37 0 -69 26 -69 72c0 51 43 93 122 130
c53 24 153 58 245 58c95 0 138 -38 138 -170v-239c0 -33 17 -48 39 -48c12 0 26 4 46 15zM369 134v154s-17 -5 -33 -11c-58 -23 -87 -66 -87 -126c0 -75 30 -95 58 -95c34 0 62 29 62 78zM212 715c40 0 74 -34 74 -74s-34 -74 -74 -74s-74 34 -74 74s34 74 74 74zM449 715
c40 0 74 -34 74 -74s-34 -74 -74 -74c-41 0 -74 34 -74 74s33 74 74 74z" />
    <glyph glyph-name="agrave" unicode="&#xe0;" horiz-adv-x="666" 
d="M641 69c-58 -47 -117 -81 -168 -81c-57 0 -93 28 -104 92c-51 -71 -116 -92 -180 -92c-88 0 -144 47 -144 111c0 76 90 121 208 162l116 40v94c0 74 -30 98 -62 98c-50 0 -80 -45 -85 -120c-4 -71 -50 -113 -107 -113c-37 0 -69 26 -69 72c0 51 43 93 122 130
c53 24 153 58 245 58c95 0 138 -38 138 -170v-239c0 -33 17 -48 39 -48c12 0 26 4 46 15zM369 134v154s-17 -5 -33 -11c-58 -23 -87 -66 -87 -126c0 -75 30 -95 58 -95c34 0 62 29 62 78zM363 575l-8 -8c-16 14 -27 24 -50 35l-26 12c-18 8 -102 40 -109 84
c-3 17 1 36 18 52c12 11 30 17 50 12c44 -11 67 -80 83 -113l15 -31c7 -14 10 -18 27 -43z" />
    <glyph glyph-name="aring" unicode="&#xe5;" horiz-adv-x="666" 
d="M641 69c-58 -47 -117 -81 -168 -81c-57 0 -93 28 -104 92c-51 -71 -116 -92 -180 -92c-88 0 -144 47 -144 111c0 76 90 121 208 162l116 40v94c0 74 -30 98 -62 98c-50 0 -80 -45 -85 -120c-4 -71 -50 -113 -107 -113c-37 0 -69 26 -69 72c0 51 43 93 122 130
c53 24 153 58 245 58c95 0 138 -38 138 -170v-239c0 -33 17 -48 39 -48c12 0 26 4 46 15zM369 134v154s-17 -5 -33 -11c-58 -23 -87 -66 -87 -126c0 -75 30 -95 58 -95c34 0 62 29 62 78zM407 667c0 -56 -44 -100 -99 -100c-56 0 -100 44 -100 100c0 55 44 99 100 99
c55 0 99 -44 99 -99zM363 667c0 30 -25 55 -55 55c-31 0 -56 -25 -56 -55c0 -31 25 -56 56 -56c30 0 55 25 55 56z" />
    <glyph glyph-name="atilde" unicode="&#xe3;" horiz-adv-x="666" 
d="M641 69c-58 -47 -117 -81 -168 -81c-57 0 -93 28 -104 92c-51 -71 -116 -92 -180 -92c-88 0 -144 47 -144 111c0 76 90 121 208 162l116 40v94c0 74 -30 98 -62 98c-50 0 -80 -45 -85 -120c-4 -71 -50 -113 -107 -113c-37 0 -69 26 -69 72c0 51 43 93 122 130
c53 24 153 58 245 58c95 0 138 -38 138 -170v-239c0 -33 17 -48 39 -48c12 0 26 4 46 15zM369 134v154s-17 -5 -33 -11c-58 -23 -87 -66 -87 -126c0 -75 30 -95 58 -95c34 0 62 29 62 78zM489 693c-12 -46 -31 -126 -97 -126c-41 0 -89 47 -132 47c-29 0 -45 -14 -61 -47
h-13c13 55 33 126 99 126c46 0 78 -47 128 -47c39 0 53 27 64 47h12z" />
    <glyph glyph-name="ccedilla" unicode="&#xe7;" horiz-adv-x="577" 
d="M285 -12c-135 3 -245 103 -245 256c0 155 122 276 276 276c129 0 207 -87 207 -165c0 -50 -32 -90 -83 -90c-40 0 -82 34 -82 90c0 24 16 51 16 90c0 34 -28 64 -58 64c-50 0 -107 -47 -107 -184c0 -146 75 -206 168 -206c54 0 114 22 158 76l7 -3
c-47 -133 -123 -202 -245 -204c-4 -13 -2 -8 -6 -16c38 -11 72 -34 72 -79c0 -47 -44 -82 -84 -82c-36 0 -65 19 -65 42c0 7 4 14 11 14c14 0 14 -9 23 -28c7 -14 12 -18 25 -18c15 0 34 14 34 35c0 41 -35 60 -78 62c29 28 41 39 56 70z" />
    <glyph glyph-name="eacute" unicode="&#xe9;" horiz-adv-x="596" 
d="M567 204c-49 -140 -130 -216 -267 -216s-260 107 -260 260c0 149 120 272 273 272c136 0 242 -101 242 -219h-326c0 -136 69 -188 164 -188c65 0 121 27 161 95zM382 346c0 128 -33 163 -69 163c-53 0 -85 -82 -85 -197h154v34zM464 698c-6 -44 -91 -76 -109 -84l-26 -12
c-23 -11 -34 -21 -50 -35l-8 8c17 25 20 29 27 43l15 31c16 33 39 102 83 113c20 5 38 -1 50 -12c18 -16 21 -35 18 -52z" />
    <glyph glyph-name="ecircumflex" unicode="&#xea;" horiz-adv-x="596" 
d="M489 567h-14l-151 76l-150 -76h-14l164 177zM382 346v-34h-154c0 115 32 197 85 197c36 0 69 -35 69 -163zM567 204l-13 4c-40 -68 -96 -95 -161 -95c-95 0 -164 52 -164 188h326c0 118 -106 219 -242 219c-153 0 -273 -123 -273 -272c0 -153 123 -260 260 -260
s218 76 267 216z" />
    <glyph glyph-name="edieresis" unicode="&#xeb;" horiz-adv-x="596" 
d="M567 204c-49 -140 -130 -216 -267 -216s-260 107 -260 260c0 149 120 272 273 272c136 0 242 -101 242 -219h-326c0 -136 69 -188 164 -188c65 0 121 27 161 95zM382 346c0 128 -33 163 -69 163c-53 0 -85 -82 -85 -197h154v34zM192 715c41 0 74 -34 74 -74
s-33 -74 -74 -74c-40 0 -74 34 -74 74s34 74 74 74zM429 715c40 0 74 -34 74 -74s-34 -74 -74 -74s-74 34 -74 74s34 74 74 74z" />
    <glyph glyph-name="egrave" unicode="&#xe8;" horiz-adv-x="596" 
d="M567 204c-49 -140 -130 -216 -267 -216s-260 107 -260 260c0 149 120 272 273 272c136 0 242 -101 242 -219h-326c0 -136 69 -188 164 -188c65 0 121 27 161 95zM382 346c0 128 -33 163 -69 163c-53 0 -85 -82 -85 -197h154v34zM343 575l-8 -8c-15 14 -26 24 -50 35
l-26 12c-17 8 -102 40 -109 84c-3 17 1 36 19 52c11 11 29 17 49 12c44 -11 68 -80 84 -113l15 -31c7 -14 9 -18 26 -43z" />
    <glyph glyph-name="iacute" unicode="&#xed;" horiz-adv-x="410" 
d="M381 0h-341v13c58 0 79 22 79 78v258c0 56 -21 78 -79 78v13s57 10 133 33c77 24 129 47 129 47v-429c0 -56 21 -78 79 -78v-13zM324 698c-6 -44 -91 -76 -109 -84l-26 -12c-23 -11 -34 -21 -50 -35l-8 8c17 25 20 29 27 43l15 31c16 33 39 102 83 113c20 5 38 -1 50 -12
c17 -16 21 -35 18 -52z" />
    <glyph glyph-name="icircumflex" unicode="&#xee;" horiz-adv-x="410" 
d="M365 567h-14l-151 76l-151 -76h-13l164 177zM40 0h341v13c-58 0 -79 22 -79 78v429s-52 -23 -129 -47c-76 -23 -133 -33 -133 -33v-13c58 0 79 -22 79 -78v-258c0 -56 -21 -78 -79 -78v-13z" />
    <glyph glyph-name="idieresis" unicode="&#xef;" horiz-adv-x="410" 
d="M381 0h-341v13c58 0 79 22 79 78v258c0 56 -21 78 -79 78v13s57 10 133 33c77 24 129 47 129 47v-429c0 -56 21 -78 79 -78v-13zM93 715c40 0 74 -34 74 -74s-34 -74 -74 -74c-41 0 -74 34 -74 74s33 74 74 74zM329 715c41 0 74 -34 74 -74s-33 -74 -74 -74
c-40 0 -74 34 -74 74s34 74 74 74z" />
    <glyph glyph-name="igrave" unicode="&#xec;" horiz-adv-x="410" 
d="M381 0h-341v13c58 0 79 22 79 78v258c0 56 -21 78 -79 78v13s57 10 133 33c77 24 129 47 129 47v-429c0 -56 21 -78 79 -78v-13zM274 575l-8 -8c-16 14 -26 24 -50 35l-26 12c-17 8 -102 40 -109 84c-3 17 1 36 19 52c11 11 29 17 49 12c44 -11 68 -80 84 -113l15 -31
c7 -14 9 -18 26 -43z" />
    <glyph glyph-name="ntilde" unicode="&#xf1;" horiz-adv-x="727" 
d="M618 385v-294c0 -56 22 -78 79 -78v-13h-312v13c32 0 51 15 51 57v302c0 54 -20 73 -56 73c-22 0 -46 -9 -78 -36v-339c0 -42 19 -57 51 -57v-13h-313v13c58 0 79 22 79 78v258c0 56 -21 78 -79 78v13s57 10 133 33c77 24 129 47 129 47v-94c60 57 128 94 188 94
c81 0 128 -41 128 -135zM515 693c-12 -46 -32 -126 -98 -126c-40 0 -89 47 -131 47c-30 0 -45 -14 -61 -47h-13c13 55 33 126 99 126c46 0 78 -47 128 -47c38 0 53 27 64 47h12z" />
    <glyph glyph-name="oacute" unicode="&#xf3;" horiz-adv-x="622" 
d="M593 253c0 -159 -129 -265 -276 -265s-277 106 -277 265c0 160 130 267 277 267s276 -107 276 -267zM396 253c0 142 -8 256 -79 256s-81 -114 -81 -256s10 -254 81 -254s79 112 79 254zM474 698c-7 -44 -91 -76 -109 -84l-26 -12c-23 -11 -34 -21 -50 -35l-8 8
c17 25 21 29 27 43l14 31c15 34 40 102 84 113c20 5 38 -1 50 -12c17 -16 21 -35 18 -52z" />
    <glyph glyph-name="ocircumflex" unicode="&#xf4;" horiz-adv-x="622" 
d="M491 567h-14l-151 76l-150 -76h-14l164 177zM396 253c0 -142 -8 -254 -79 -254s-81 112 -81 254s10 256 81 256s79 -114 79 -256zM593 253c0 160 -129 267 -276 267s-277 -107 -277 -267c0 -159 130 -265 277 -265s276 106 276 265z" />
    <glyph glyph-name="odieresis" unicode="&#xf6;" horiz-adv-x="622" 
d="M593 253c0 -159 -129 -265 -276 -265s-277 106 -277 265c0 160 130 267 277 267s276 -107 276 -267zM396 253c0 142 -8 256 -79 256s-81 -114 -81 -256s10 -254 81 -254s79 112 79 254zM201 715c41 0 74 -34 74 -74s-33 -74 -74 -74c-40 0 -74 34 -74 74s34 74 74 74z
M438 715c40 0 74 -34 74 -74s-34 -74 -74 -74c-41 0 -74 34 -74 74s33 74 74 74z" />
    <glyph glyph-name="ograve" unicode="&#xf2;" horiz-adv-x="622" 
d="M593 253c0 -159 -129 -265 -276 -265s-277 106 -277 265c0 160 130 267 277 267s276 -107 276 -267zM396 253c0 142 -8 256 -79 256s-81 -114 -81 -256s10 -254 81 -254s79 112 79 254zM363 575l-8 -8c-16 14 -27 24 -50 35l-26 12c-18 8 -102 40 -109 84
c-3 17 1 36 18 52c12 11 30 17 50 12c44 -11 67 -80 83 -113l15 -31c7 -14 10 -18 27 -43z" />
    <glyph glyph-name="otilde" unicode="&#xf5;" horiz-adv-x="622" 
d="M593 253c0 -159 -129 -265 -276 -265s-277 106 -277 265c0 160 130 267 277 267s276 -107 276 -267zM396 253c0 142 -8 256 -79 256s-81 -114 -81 -256s10 -254 81 -254s79 112 79 254zM482 693c-12 -46 -31 -126 -97 -126c-41 0 -89 47 -132 47c-29 0 -45 -14 -61 -47
h-13c13 55 33 126 99 126c46 0 78 -47 128 -47c39 0 54 27 64 47h12z" />
    <glyph glyph-name="uacute" unicode="&#xfa;" horiz-adv-x="712" 
d="M605 153c0 -58 29 -82 77 -82v-9s-65 -14 -130 -34c-74 -22 -131 -43 -131 -43v96c-62 -51 -124 -93 -182 -93c-79 0 -139 48 -139 139v269c0 59 -33 85 -79 85v14s79 4 136 10c51 5 125 15 125 15v-365c0 -63 33 -90 67 -90c20 0 39 7 73 37v294c0 59 -32 85 -79 85v14
s79 4 136 10c52 5 126 15 126 15v-367zM474 698c-7 -44 -91 -76 -109 -84l-26 -12c-23 -11 -34 -21 -50 -35l-8 8c17 25 21 29 27 43l14 31c15 34 40 102 84 113c20 5 38 -1 50 -12c17 -16 21 -35 18 -52z" />
    <glyph glyph-name="ucircumflex" unicode="&#xfb;" horiz-adv-x="712" 
d="M495 567h-14l-151 76l-151 -76h-13l164 177zM605 153v367s-74 -10 -126 -15c-57 -6 -136 -10 -136 -10v-14c47 0 79 -26 79 -85v-294c-34 -30 -53 -37 -73 -37c-34 0 -67 27 -67 90v365s-74 -10 -125 -15c-57 -6 -136 -10 -136 -10v-14c46 0 79 -26 79 -85v-269
c0 -91 60 -139 139 -139c58 0 120 42 182 93v-96s57 21 131 43c65 20 130 34 130 34v9c-48 0 -77 24 -77 82z" />
    <glyph glyph-name="udieresis" unicode="&#xfc;" horiz-adv-x="712" 
d="M605 153c0 -58 29 -82 77 -82v-9s-65 -14 -130 -34c-74 -22 -131 -43 -131 -43v96c-62 -51 -124 -93 -182 -93c-79 0 -139 48 -139 139v269c0 59 -33 85 -79 85v14s79 4 136 10c51 5 125 15 125 15v-365c0 -63 33 -90 67 -90c20 0 39 7 73 37v294c0 59 -32 85 -79 85v14
s79 4 136 10c52 5 126 15 126 15v-367zM215 715c40 0 74 -34 74 -74s-34 -74 -74 -74s-74 34 -74 74s34 74 74 74zM452 715c40 0 74 -34 74 -74s-34 -74 -74 -74c-41 0 -74 34 -74 74s33 74 74 74z" />
    <glyph glyph-name="ugrave" unicode="&#xf9;" horiz-adv-x="712" 
d="M605 153c0 -58 29 -82 77 -82v-9s-65 -14 -130 -34c-74 -22 -131 -43 -131 -43v96c-62 -51 -124 -93 -182 -93c-79 0 -139 48 -139 139v269c0 59 -33 85 -79 85v14s79 4 136 10c51 5 125 15 125 15v-365c0 -63 33 -90 67 -90c20 0 39 7 73 37v294c0 59 -32 85 -79 85v14
s79 4 136 10c52 5 126 15 126 15v-367zM373 575l-8 -8c-16 14 -27 24 -50 35l-26 12c-18 8 -103 40 -110 84c-2 17 1 36 19 52c12 11 30 17 50 12c44 -11 67 -80 83 -113l15 -31c7 -14 10 -18 27 -43z" />
    <glyph glyph-name="ydieresis" unicode="&#xff;" horiz-adv-x="634" 
d="M644 495c-71 -19 -139 -131 -161 -176l-183 -368c-42 -84 -88 -165 -183 -165c-74 0 -121 41 -121 104c0 54 40 86 88 86c73 0 89 -85 132 -85c18 0 33 7 49 28c11 13 24 39 40 70l-207 429c-25 52 -45 69 -97 77v13h339v-13c-23 -3 -39 -5 -48 -25
c-15 -30 12 -77 32 -119l79 -161c32 64 72 143 72 209c0 54 -19 88 -63 96v13h232v-13zM215 715c40 0 74 -34 74 -74s-34 -74 -74 -74s-74 34 -74 74s34 74 74 74zM452 715c40 0 74 -34 74 -74s-34 -74 -74 -74c-41 0 -74 34 -74 74s33 74 74 74z" />
    <glyph glyph-name="notequal" unicode="&#x2260;" horiz-adv-x="380" 
d="M343 700c-16 -31 -26 -61 -34 -96h-202l-9 -49c13 3 33 6 57 6c124 0 195 -62 195 -145c0 -85 -71 -150 -165 -150c-96 0 -145 38 -145 89c0 33 26 51 53 51c26 0 49 -21 49 -55c0 -15 -3 -27 -3 -43c0 -19 15 -35 46 -35c41 0 75 34 75 97c0 61 -41 97 -132 97
c-23 0 -47 -3 -66 -7c4 7 5 13 7 26l29 177c1 8 1 19 1 19h173c37 0 46 1 65 21z" />
    <glyph glyph-name="infinity" unicode="&#x221e;" horiz-adv-x="634" 
d="M644 495c-71 -19 -139 -131 -161 -176l-183 -368c-42 -84 -88 -165 -183 -165c-74 0 -121 41 -121 104c0 54 40 86 88 86c73 0 89 -85 132 -85c18 0 33 7 49 28c11 13 24 39 40 70l-207 429c-25 52 -45 69 -97 77v13h339v-13c-23 -3 -39 -5 -48 -25
c-15 -30 12 -77 32 -119l79 -161c32 64 72 143 72 209c0 54 -19 88 -63 96v13h232v-13zM474 698c-7 -44 -91 -76 -109 -84l-26 -12c-23 -11 -34 -21 -50 -35l-8 8c17 25 21 29 27 43l14 31c15 34 40 102 84 113c20 5 38 -1 50 -12c17 -16 21 -35 18 -52z" />
    <glyph glyph-name="partialdiff" unicode="&#x2202;" horiz-adv-x="577" 
d="M559 200c-47 -118 -121 -212 -253 -212c-149 0 -266 97 -266 262c0 140 105 258 273 258c115 0 186 -57 224 -177l-328 -48c28 -117 87 -164 179 -164c59 0 105 16 161 87zM358 318c0 112 -42 175 -92 175c-49 0 -63 -75 -63 -137c0 -28 3 -50 4 -61z" />
    <glyph glyph-name="pi" unicode="&#x3c0;" horiz-adv-x="637" 
d="M607 253c0 -159 -138 -269 -290 -265c-149 4 -277 106 -277 265c0 160 128 263 277 267c153 4 290 -107 290 -267zM405 271c-30 138 -67 248 -137 233s-60 -128 -31 -266c30 -140 68 -249 138 -234c69 15 60 127 30 267z" />
    <glyph glyph-name="radical" unicode="&#x221a;" horiz-adv-x="400" 
d="M370 742l-165 -177l-165 177h14l151 -76l151 76h14z" />
    </font>
</defs>
</svg>
